<?xml version="1.0" encoding="UTF-8"?>
<!-- Generator: visioncortex VTracer 0.6.3 -->
<svg version="1.1" xmlns="http://www.w3.org/2000/svg" width="1280" height="1280">
<path d="M0 0 C422.4 0 844.8 0 1280 0 C1280 422.4 1280 844.8 1280 1280 C857.6 1280 435.2 1280 0 1280 C0 857.6 0 435.2 0 0 Z " fill="#EF6422" transform="translate(0,0)"/>
<path d="M0 0 C56.7 -0.07 113.4 -0.12 170.09 -0.15 C176.8 -0.16 183.5 -0.16 190.2 -0.16 C190.86 -0.17 191.53 -0.17 192.22 -0.17 C213.79 -0.18 235.37 -0.2 256.94 -0.23 C279.76 -0.26 302.58 -0.28 325.4 -0.28 C339.06 -0.29 352.72 -0.3 366.37 -0.32 C375.75 -0.34 385.13 -0.34 394.51 -0.34 C399.91 -0.34 405.31 -0.34 410.71 -0.36 C461.44 -0.5 461.44 -0.5 480.88 5.94 C481.66 6.18 482.45 6.42 483.26 6.66 C488.45 8.29 493.21 10.43 498 13 C498.73 13.39 499.46 13.77 500.21 14.17 C509.63 19.74 515.84 27.5 521 37 C521.68 38.1 522.36 39.19 523.05 40.32 C525.13 43.96 526.13 47.63 526.81 51.75 C526.94 52.48 527.06 53.2 527.19 53.95 C531.08 79.93 522.89 105.16 507.75 126.06 C504.31 130.51 500.67 134.73 496.88 138.88 C496.4 139.4 495.92 139.92 495.42 140.46 C485.24 151.34 472.36 161.39 459.37 168.66 C457.27 169.85 455.24 171.1 453.2 172.38 C430.62 186.56 405.99 198.74 381 208 C379.51 208.57 378.03 209.13 376.54 209.7 C369.74 212.3 362.91 214.73 356 217 C354.86 217.38 354.86 217.38 353.69 217.76 C332.62 224.71 311.26 230.94 289.52 235.45 C288.27 235.72 288.27 235.72 286.99 235.99 C286.26 236.14 285.54 236.29 284.79 236.44 C282.77 236.92 282.77 236.92 281 239 C279.65 242.63 279.52 246.18 280 250 C284.56 253.98 288.49 254.56 294.34 254.47 C295.13 254.48 295.93 254.48 296.75 254.49 C300.13 254.52 303.51 254.5 306.89 254.49 C321.89 254.48 335.43 256.33 349.25 262.56 C350 262.9 350.74 263.23 351.51 263.58 C358.96 267.13 364.41 272.02 370 278 C370.67 278.68 371.35 279.36 372.04 280.06 C386.67 295.56 389.74 313.08 389.37 333.55 C388.62 351.87 382.27 368.62 368.76 381.3 C366.86 383.04 366.86 383.04 365.12 385.56 C354.56 397.68 334.96 404.23 320 409 C319.36 409.22 318.73 409.44 318.07 409.66 C312.66 411.51 307.22 413.08 301.69 414.5 C300.43 414.82 300.43 414.82 299.16 415.15 C297.5 415.58 295.85 416 294.2 416.43 C292.4 416.9 290.6 417.39 288.8 417.88 C272.65 422.26 255.64 423.75 239 425 C237.84 425.09 236.68 425.18 235.49 425.27 C222.31 426.22 209.14 426.11 195.94 426.06 C193.61 426.06 191.27 426.05 188.94 426.05 C183.3 426.04 177.65 426.02 172 426 C170.74 421.85 171.56 419.62 173.06 415.53 C173.29 414.9 173.52 414.28 173.75 413.63 C174.49 411.58 175.24 409.54 176 407.5 C176.52 406.08 177.03 404.65 177.55 403.23 C178.57 400.42 179.59 397.6 180.62 394.79 C182.29 390.21 183.9 385.61 185.5 381 C188.49 372.43 191.52 363.87 194.56 355.31 C195.04 353.96 195.53 352.6 196.01 351.24 C197.68 346.54 199.35 341.84 201.01 337.14 C203.74 329.46 206.45 321.77 208.95 314 C209.85 311.42 210.84 308.91 211.88 306.38 C214.13 300.79 216.01 295.1 217.88 289.38 C220.28 282.06 222.75 274.8 225.51 267.61 C228.17 260.64 230.64 253.6 233.12 246.56 C237.11 235.29 241.15 224.04 245.25 212.81 C249.59 200.91 253.86 188.98 258 177 C258.73 174.9 259.45 172.81 260.18 170.71 C260.95 168.48 261.73 166.24 262.5 164 C263.65 160.68 264.8 157.36 265.95 154.04 C266.6 152.16 267.25 150.27 267.91 148.38 C271.81 137.08 275.88 125.86 280.02 114.65 C284.02 103.79 287.85 92.89 291.56 81.93 C298.02 62.97 298.02 62.97 301 57 C294.04 55.7 287.1 55.86 280.03 55.87 C278.62 55.87 277.2 55.87 275.79 55.87 C271.96 55.86 268.14 55.86 264.31 55.87 C260.3 55.87 256.3 55.87 252.29 55.86 C245.56 55.86 238.84 55.86 232.11 55.87 C224.34 55.88 216.56 55.87 208.78 55.87 C202.1 55.86 195.42 55.86 188.74 55.87 C184.75 55.87 180.76 55.87 176.77 55.86 C173.03 55.86 169.28 55.86 165.53 55.87 C164.16 55.87 162.78 55.87 161.41 55.87 C159.53 55.86 157.66 55.87 155.78 55.87 C154.73 55.87 153.68 55.87 152.6 55.87 C149.88 55.89 149.88 55.89 147 57 C146.89 57.99 146.78 58.97 146.67 59.99 C146.06 64.26 144.73 68.14 143.27 72.18 C143 72.95 142.72 73.72 142.44 74.52 C141.57 76.97 140.69 79.42 139.81 81.88 C139.24 83.48 138.67 85.09 138.1 86.7 C136.96 89.9 135.82 93.1 134.68 96.29 C133.32 100.09 131.98 103.9 130.64 107.71 C127.86 115.61 125 123.47 122.06 131.31 C115.97 147.7 110.22 164.18 104.75 180.78 C103.18 185.55 101.54 190.27 99.75 194.96 C97.91 199.96 96.33 205.06 94.69 210.13 C93.04 215.16 91.17 219.95 88.97 224.76 C87.27 228.68 86 232.74 84.69 236.81 C84.07 238.68 83.46 240.56 82.84 242.43 C82.54 243.36 82.23 244.3 81.91 245.26 C80.55 249.36 79.12 253.43 77.69 257.5 C75.19 264.58 72.74 271.67 70.3 278.77 C66.52 289.81 62.65 300.8 58.58 311.73 C57 315.97 55.49 320.23 54 324.5 C53.26 326.59 52.53 328.67 51.79 330.76 C51.23 332.34 50.68 333.92 50.12 335.51 C49.22 338.09 48.3 340.67 47.38 343.25 C47.1 344.05 46.82 344.85 46.54 345.67 C44.93 350.11 43.24 353.46 40 357 C39.61 356.05 39.22 355.1 38.81 354.12 C37.56 351.18 36.16 348.35 34.69 345.52 C31.77 339.7 29.44 333.73 27.19 327.62 C26.55 325.89 26.55 325.89 25.89 324.12 C20.2 308.42 15.49 292.33 12 276 C11.52 273.98 11.04 271.96 10.56 269.94 C5.03 246 2.91 222.45 2.5 197.94 C2.48 196.84 2.46 195.73 2.44 194.6 C2.13 177.27 1.93 159.94 1.75 142.61 C1.73 141.07 1.73 141.07 1.72 139.51 C1.61 129.15 1.51 118.8 1.42 108.45 C1.38 104.5 1.35 100.55 1.31 96.61 C1.29 94.78 1.27 92.95 1.26 91.12 C1.19 82.36 1.05 73.62 0.63 64.87 C-0.04 50.91 -0.12 36.98 -0.06 23 C-0.06 20.75 -0.05 18.5 -0.05 16.25 C-0.04 10.83 -0.02 5.42 0 0 Z " fill="#FAFCFC" transform="translate(327,446)"/>
<path d="M0 0 C0.85 0.07 1.7 0.15 2.58 0.23 C36.25 3.21 69.9 7.27 102.79 15.29 C105.55 15.9 108.31 16.42 111.11 16.92 C128.95 20.12 146.39 24.75 163.64 30.26 C166.6 31.19 169.58 32.06 172.56 32.94 C187.15 37.46 201.4 43.09 215.62 48.62 C217.35 49.29 217.35 49.29 219.11 49.97 C239.77 58.07 239.77 58.07 242.13 61.78 C243.14 64.36 243.24 66.28 243.23 69.04 C243.23 70.04 243.23 71.05 243.23 72.08 C243.22 73.15 243.21 74.22 243.2 75.33 C243.19 76.98 243.19 76.98 243.19 78.67 C243.18 82.2 243.15 85.72 243.12 89.25 C243.11 91.64 243.11 94.03 243.1 96.42 C243.08 102.28 243.04 108.14 243 114 C238 114.08 234.48 113.68 229.81 111.88 C186.15 96.21 138.18 96.69 92.48 96.68 C86.06 96.68 79.64 96.66 73.21 96.65 C62.11 96.63 51.02 96.61 39.92 96.6 C28.29 96.59 16.67 96.58 5.04 96.56 C3.95 96.56 3.95 96.56 2.84 96.55 C-0.84 96.55 -4.53 96.54 -8.22 96.54 C-34.26 96.49 -60.3 96.45 -86.34 96.42 C-111.62 96.39 -136.9 96.36 -162.18 96.32 C-162.96 96.32 -163.74 96.31 -164.55 96.31 C-172.39 96.3 -180.23 96.29 -188.07 96.28 C-204.04 96.25 -220.02 96.23 -235.99 96.2 C-236.72 96.2 -237.46 96.2 -238.21 96.2 C-287.14 96.12 -336.07 96.06 -385 96 C-387.14 91.72 -386.19 86.01 -386.19 81.25 C-386.19 79.14 -386.21 77.03 -386.22 74.92 C-386.23 73.57 -386.23 72.23 -386.23 70.88 C-386.23 69.66 -386.24 68.44 -386.24 67.18 C-386.01 64.15 -385.69 62.48 -384 60 C-381.93 58.88 -381.93 58.88 -379.44 58 C-378.54 57.67 -377.64 57.34 -376.71 57 C-375.37 56.5 -375.37 56.5 -374 56 C-370.18 54.38 -366.41 52.66 -362.66 50.9 C-355.11 47.37 -347.39 44.41 -339.56 41.56 C-338.58 41.2 -338.58 41.2 -337.58 40.84 C-327.84 37.28 -318.04 34.06 -308.07 31.2 C-304.69 30.23 -301.41 29.08 -298.12 27.81 C-293.25 25.98 -288.37 24.94 -283.27 23.91 C-277.79 22.78 -272.37 21.37 -266.94 20 C-253.02 16.5 -239.16 13.38 -225 11 C-224.08 10.84 -223.16 10.69 -222.22 10.53 C-216.1 9.49 -209.98 8.47 -203.86 7.47 C-202.1 7.18 -200.34 6.89 -198.59 6.59 C-133.27 -4.38 -65.87 -5.88 0 0 Z " fill="#FAFCFC" transform="translate(711,243)"/>
<path d="M0 0 C0.99 0.33 1.98 0.66 3 1 C3.02 8.97 3.04 16.94 3.05 24.92 C3.06 28.62 3.06 32.32 3.08 36.03 C3.09 39.61 3.09 43.2 3.09 46.78 C3.1 48.79 3.11 50.8 3.11 52.81 C3.12 109.48 -15.5 167.86 -41 218 C-41.63 219.25 -41.63 219.25 -42.27 220.53 C-55.93 247.56 -72.54 276.1 -93.5 298.06 C-97.02 301.8 -100.36 305.61 -103.56 309.62 C-108.01 315.15 -112.92 320.07 -118 325 C-121.61 328.54 -121.61 328.54 -124.81 332.44 C-126.69 334.64 -128.19 335.97 -130.5 337.62 C-134.2 340.29 -137.54 343.26 -140.88 346.38 C-146.05 351.19 -151.42 355.65 -157 360 C-158.08 360.87 -159.16 361.75 -160.24 362.62 C-167.16 368.19 -174.22 373.23 -181.75 377.94 C-184.65 379.78 -187.46 381.69 -190.25 383.69 C-195.01 387.07 -199.97 390.03 -205 393 C-206.24 393.73 -206.24 393.73 -207.5 394.48 C-232.04 408.87 -257.49 420.72 -284 431 C-284.96 431.38 -285.93 431.76 -286.92 432.15 C-289.55 433.17 -292.18 434.19 -294.81 435.19 C-295.56 435.48 -296.32 435.77 -297.09 436.07 C-305.32 439.12 -310.62 437.76 -318.56 434.88 C-319.89 434.4 -319.89 434.4 -321.25 433.92 C-327.43 431.68 -333.35 429.12 -339.27 426.26 C-341.63 425.17 -343.89 424.32 -346.38 423.56 C-353.2 421.41 -359.58 418.13 -366 415 C-366.86 414.58 -367.72 414.16 -368.6 413.73 C-379.28 408.51 -389.88 403.22 -400.09 397.13 C-402.32 395.81 -404.57 394.5 -406.8 393.19 C-416.92 387.25 -426.56 380.96 -436 374 C-437.62 372.87 -439.25 371.74 -440.88 370.62 C-450.87 363.63 -460.63 356.32 -469.94 348.44 C-470.53 347.94 -471.13 347.44 -471.75 346.92 C-474.38 344.66 -475.88 343.35 -477 340 C-475.15 339.99 -475.15 339.99 -473.26 339.98 C-461.48 339.9 -449.7 339.81 -437.93 339.71 C-431.88 339.66 -425.82 339.62 -419.77 339.58 C-380.84 339.37 -380.84 339.37 -342 337 C-341.02 336.91 -340.04 336.83 -339.03 336.74 C-332.86 336.18 -326.71 335.53 -320.56 334.81 C-319.66 334.71 -318.76 334.61 -317.83 334.5 C-303.65 332.87 -289.56 330.77 -275.5 328.31 C-274.64 328.16 -273.77 328.01 -272.88 327.86 C-270.45 327.43 -268.02 326.99 -265.59 326.55 C-264.88 326.42 -264.16 326.3 -263.43 326.17 C-259.96 325.52 -257.09 324.68 -254 323 C-252.6 322.6 -251.18 322.24 -249.75 321.92 C-248.93 321.73 -248.1 321.55 -247.25 321.35 C-245.92 321.05 -245.92 321.05 -244.56 320.75 C-236.88 318.98 -229.27 317.04 -221.69 314.88 C-220.84 314.63 -219.98 314.39 -219.11 314.14 C-213.97 312.66 -208.99 310.93 -204 309 C-202.16 308.33 -202.16 308.33 -200.28 307.64 C-174.93 298.35 -149.3 286.82 -128 270 C-126.65 268.96 -126.65 268.96 -125.28 267.89 C-112.54 257.79 -101.19 246.14 -93 232 C-92.29 230.89 -92.29 230.89 -91.56 229.75 C-89.86 226.75 -88.46 223.71 -87.1 220.54 C-86.36 218.84 -85.6 217.16 -84.81 215.49 C-68.24 179.09 -75.32 139.3 -88.7 103.32 C-90.24 99.4 -92 95.7 -94 92 C-94.66 90.68 -95.31 89.36 -95.96 88.04 C-96.62 86.71 -97.28 85.39 -97.94 84.06 C-98.28 83.37 -98.63 82.67 -98.98 81.95 C-101.21 77.49 -103.56 73.14 -106.19 68.89 C-107.21 66.51 -107.14 64.57 -107 62 C-106.18 61.67 -105.36 61.35 -104.52 61.01 C-103.44 60.57 -102.36 60.14 -101.25 59.69 C-100.18 59.26 -99.12 58.83 -98.02 58.39 C-95.32 57.15 -93.3 55.84 -91 54 C-86.35 51.5 -81.51 49.42 -76.68 47.28 C-74 46 -71.54 44.55 -69 43 C-66.3 41.48 -63.59 39.99 -60.88 38.5 C-47.41 31.04 -34.02 23.5 -21.15 15.06 C-18.15 13.1 -15.11 11.2 -12.06 9.31 C-8.78 7.25 -5.87 5.11 -3 2.5 C-1.51 1.26 -1.51 1.26 0 0 Z " fill="#FAFCFC" transform="translate(946,600)"/>
<path d="M0 0 C88.11 0 176.22 0 267 0 C267 239.58 267 479.16 267 726 C266.01 725.67 265.02 725.34 264 725 C263.99 723.94 263.98 722.87 263.97 721.78 C263.87 711.79 263.77 701.8 263.66 691.8 C263.61 686.67 263.55 681.53 263.5 676.39 C263.46 671.44 263.4 666.48 263.35 661.53 C263.33 659.64 263.31 657.74 263.29 655.85 C263.27 653.2 263.24 650.56 263.21 647.92 C263.2 647.13 263.19 646.33 263.19 645.52 C263.46 641.96 263.46 641.96 262 639 C261.88 636 261.88 636 262 633 C262.33 632.67 262.66 632.34 263 632 C263.09 630.62 263.11 629.24 263.1 627.86 C263.09 626.97 263.09 626.08 263.09 625.16 C263.08 624.18 263.07 623.19 263.06 622.18 C263.05 620.05 263.05 617.93 263.04 615.8 C263.03 614.67 263.02 613.54 263.02 612.38 C262.9 590.75 263.12 569.14 263.73 547.52 C263.76 546.57 263.78 545.63 263.81 544.66 C263.85 542.91 263.9 541.15 263.96 539.4 C263.98 538.63 264 537.85 264.02 537.06 C264.04 536.39 264.06 535.72 264.08 535.04 C264.06 532.94 264.06 532.94 263.5 530.72 C262.98 527.87 262.88 525.27 262.89 522.38 C262.89 520.69 262.89 520.69 262.89 518.97 C262.89 517.74 262.9 516.51 262.9 515.24 C262.9 513.23 262.91 511.22 262.91 509.21 C262.91 507.04 262.92 504.87 262.92 502.7 C262.94 498.09 262.95 493.48 262.95 488.86 C262.96 483.09 262.97 477.32 262.98 471.55 C263.01 453.35 263.02 435.16 263.02 416.96 C263.02 415.65 263.02 415.65 263.02 414.32 C263.02 382.67 262.97 351.03 262.74 319.38 C262.7 314.7 262.68 310.03 262.65 305.35 C262.63 299.9 262.59 294.45 262.54 289 C262.52 287.05 262.51 285.1 262.5 283.15 C262.44 265.39 260.26 248.14 256.31 230.81 C256.06 229.7 255.81 228.58 255.55 227.43 C253.64 219.22 251.4 211.13 248.94 203.06 C248.62 202.03 248.31 200.99 247.98 199.93 C245.72 192.77 242.97 185.89 240 179 C239.67 178.22 239.34 177.44 239.01 176.63 C236.68 171.11 233.84 165.85 230.99 160.58 C229.08 157.05 227.24 153.5 225.5 149.88 C220.71 140.24 214.76 131.42 208.22 122.91 C206.08 120.1 204.04 117.25 202 114.38 C198.03 108.89 193.59 103.97 189 99 C187.79 97.63 186.58 96.26 185.38 94.88 C184.81 94.23 184.25 93.59 183.68 92.93 C182.54 91.62 181.41 90.3 180.29 88.97 C176.2 84.16 171.83 80.07 167 76 C165.91 75.06 164.82 74.12 163.73 73.18 C155.1 65.71 146.51 58.33 137 52 C134.94 50.48 132.87 48.96 130.81 47.44 C115.97 36.68 99.5 27.64 82.32 21.28 C78.98 19.99 75.76 18.54 72.5 17.06 C63.3 13.07 53.68 10.54 44 8 C42.25 7.54 42.25 7.54 40.47 7.06 C33.98 5.46 27.42 4.35 20.81 3.31 C19.99 3.18 19.17 3.05 18.33 2.91 C12.52 2.05 6.87 1.85 1 2 C0.67 1.34 0.34 0.68 0 0 Z " fill="#FAFCFC" transform="translate(1013,0)"/>
<path d="M0 0 C0.99 0.5 0.99 0.5 2 1 C2.72 11.73 3.15 22.39 3.13 33.14 C3.13 34.64 3.14 36.14 3.14 37.64 C3.14 41.81 3.13 45.98 3.13 50.15 C3.12 52.84 3.12 55.52 3.12 58.2 C3.12 87.28 2.95 116.37 2.76 145.45 C2.74 148.25 2.72 151.06 2.7 153.86 C2.59 171.8 2.47 189.73 2.33 207.67 C2.28 214.92 2.22 222.17 2.18 229.42 C2.14 234.51 2.1 239.6 2.06 244.69 C2.03 247.81 2.01 250.93 1.99 254.04 C1.98 255.49 1.97 256.93 1.96 258.38 C1.94 260.33 1.93 262.29 1.92 264.25 C1.91 265.34 1.9 266.43 1.89 267.56 C1.72 269.95 1.72 269.95 3 271 C3.08 273.13 3.1 275.26 3.08 277.39 C3.08 278.06 3.08 278.73 3.07 279.42 C3.07 280.88 3.06 282.34 3.04 283.8 C3.03 286.13 3.02 288.46 3.01 290.8 C2.98 297.43 2.95 304.07 2.9 310.71 C2.65 337.42 2.65 337.42 5 364 C5.15 365.09 5.3 366.19 5.46 367.31 C5.86 369.89 6.31 372.44 6.81 375 C6.98 375.89 7.15 376.79 7.32 377.71 C10.99 401.35 10.99 401.35 20 423 C20.63 424.9 21.2 426.82 21.75 428.75 C25.96 442.71 31.93 455.3 39 468 C39.33 468.6 39.66 469.19 40 469.81 C49.17 486.12 60.41 501.61 73.3 515.15 C75.42 517.39 77.45 519.65 79.44 522 C86.92 530.64 95.26 538.65 104 546 C104.96 546.84 105.93 547.68 106.92 548.55 C113.69 554.43 120.66 559.78 128.14 564.76 C130.21 566.14 132.27 567.54 134.33 568.95 C143.35 575.06 152.46 580.73 162 586 C163.08 586.63 164.15 587.27 165.26 587.92 C192.78 603.65 225.49 613.48 257.07 615.12 C258.75 615.23 258.75 615.23 260.47 615.34 C261.48 615.4 262.5 615.45 263.54 615.51 C266 616 266 616 268 619 C179.56 619 91.12 619 0 619 C0 414.73 0 210.46 0 0 Z " fill="#FAFCFC" transform="translate(0,661)"/>
<path d="M0 0 C0.33 0 0.66 0 1 0 C1 88.77 1 177.54 1 269 C-85.79 269 -172.58 269 -262 269 C-261.67 268.34 -261.34 267.68 -261 267 C-259.07 266.53 -259.07 266.53 -256.49 266.21 C-255.52 266.08 -254.55 265.95 -253.55 265.81 C-252.48 265.67 -251.41 265.52 -250.31 265.38 C-222.9 261.32 -196.42 252.87 -171.21 241.45 C-169.22 240.55 -167.21 239.69 -165.18 238.89 C-162.95 238.1 -162.95 238.1 -161.19 236.56 C-159 235 -159 235 -155.38 233.75 C-150.98 232.18 -147.58 229.75 -143.83 227.02 C-140.66 224.76 -137.41 222.65 -134.12 220.56 C-132.92 219.79 -131.71 219.01 -130.5 218.24 C-128.33 216.85 -126.15 215.47 -123.96 214.11 C-112.11 206.52 -101.64 197.1 -92.05 186.83 C-90 185 -90 185 -87.86 184.48 C-86.94 184.24 -86.94 184.24 -86 184 C-84.89 182.15 -84.89 182.15 -84 180 C-83 178.74 -81.95 177.51 -80.88 176.31 C-80.25 175.61 -79.62 174.91 -78.98 174.19 C-77.69 172.77 -76.41 171.35 -75.11 169.94 C-69.35 163.58 -64.16 156.85 -59 150 C-58.43 149.25 -57.86 148.51 -57.27 147.74 C-55.94 146.03 -55.94 146.03 -55.06 144 C-53.75 141.53 -51.97 139.97 -50 138 C-48.97 136.35 -47.98 134.68 -47 133 C-46.16 131.63 -45.32 130.26 -44.48 128.89 C-44.01 128.14 -43.55 127.38 -43.07 126.6 C-42.12 125.05 -41.16 123.5 -40.2 121.95 C-37.36 117.31 -34.66 112.63 -32.09 107.84 C-31 106 -31 106 -29 104 C-28.36 102.63 -27.79 101.23 -27.25 99.81 C-26.9 98.92 -26.56 98.03 -26.2 97.11 C-25.8 96.08 -25.41 95.06 -25 94 C-24.02 91.54 -23.05 89.08 -22.06 86.62 C-21.81 85.98 -21.55 85.33 -21.28 84.66 C-19.75 80.8 -18.12 76.99 -16.44 73.19 C-13.17 65.34 -11.08 57.22 -9 49 C-8.75 48.01 -8.49 47.02 -8.23 46 C-4.56 31.6 -2 17.58 -1.2 2.72 C-1 1 -1 1 0 0 Z " fill="#FAFCFC" transform="translate(1279,1011)"/>
<path d="M0 0 C85.47 0 170.94 0 259 0 C256.34 2.66 254.86 2.36 251.12 2.69 C223.7 5.82 195.63 15.34 170.79 27.17 C169.12 27.95 167.41 28.65 165.71 29.34 C160.57 31.52 155.78 34.37 150.94 37.12 C149.92 37.7 148.9 38.28 147.84 38.88 C131.63 48.16 116.71 58.25 103 71 C101.69 72.15 100.38 73.3 99.06 74.44 C90.9 81.56 82.92 88.64 76 97 C75.17 97.97 74.34 98.93 73.48 99.93 C57.5 118.52 43.85 138.56 32.07 160.07 C31.19 161.65 30.26 163.21 29.31 164.75 C27.93 167.11 27 169.46 26 172 C25.27 173.73 24.54 175.46 23.81 177.19 C22.87 179.46 21.94 181.73 21 184 C20.6 184.94 20.6 184.94 20.2 185.89 C14.43 199.56 10.58 213.62 7 228 C6.81 228.74 6.63 229.48 6.44 230.24 C3.8 240.88 1.83 252.4 2.07 263.41 C2 266 2 266 0 268 C0 179.56 0 91.12 0 0 Z " fill="#FAFCFC" transform="translate(0,0)"/>
<path d="M0 0 C1.43 -0 2.86 -0.01 4.29 -0.01 C5.51 -0.02 6.72 -0.03 7.97 -0.03 C13.18 0.05 18.29 0.59 23.44 1.27 C24.5 1.4 25.56 1.54 26.66 1.68 C49.99 4.73 72.98 9.59 95.32 17.02 C95.32 17.68 95.32 18.34 95.32 19.02 C95.98 19.02 96.64 19.02 97.32 19.02 C96.66 20.34 96 21.66 95.32 23.02 C88.7 23.49 84.71 22.25 78.94 19.08 C78.23 18.71 77.52 18.34 76.79 17.95 C74.96 16.99 73.14 16.01 71.32 15.02 C69.04 13.88 67.67 13.87 65.13 13.81 C64.29 13.78 63.44 13.75 62.57 13.72 C60.81 13.67 59.05 13.63 57.3 13.59 C52.89 13.43 49.07 13.02 44.9 11.6 C35.4 8.97 25.5 8.85 15.71 8.35 C14.5 8.29 13.29 8.22 12.05 8.16 C-32.21 5.95 -76.59 6.66 -120.88 6.74 C-130.34 6.76 -139.8 6.77 -149.26 6.77 C-150.27 6.78 -150.27 6.78 -151.31 6.78 C-154.76 6.78 -158.21 6.78 -161.67 6.78 C-185.91 6.79 -210.16 6.82 -234.4 6.85 C-240.24 6.86 -246.07 6.86 -251.91 6.87 C-252.63 6.87 -253.35 6.87 -254.1 6.88 C-271.01 6.9 -287.92 6.92 -304.83 6.93 C-305.92 6.93 -305.92 6.93 -307.03 6.93 C-323.63 6.95 -340.24 6.96 -356.84 6.97 C-357.89 6.98 -357.89 6.98 -358.95 6.98 C-365.23 6.98 -371.51 6.99 -377.78 6.99 C-394.05 7 -410.32 7.02 -426.59 7.04 C-436.76 7.06 -446.93 7.07 -457.11 7.08 C-462.97 7.08 -468.83 7.09 -474.69 7.1 C-480.06 7.11 -485.42 7.12 -490.79 7.12 C-492.73 7.12 -494.67 7.12 -496.6 7.13 C-520.02 7.19 -520.02 7.19 -526.68 6.02 C-527.34 5.36 -528 4.7 -528.68 4.02 C-528.68 3.03 -528.68 2.04 -528.68 1.02 C-478.95 0.93 -429.22 0.83 -379.49 0.73 C-378.38 0.73 -378.38 0.73 -377.26 0.73 C-361.25 0.7 -345.24 0.67 -329.24 0.64 C-321.38 0.62 -313.53 0.61 -305.68 0.59 C-304.51 0.59 -304.51 0.59 -303.32 0.59 C-278.01 0.54 -252.71 0.49 -227.41 0.44 C-201.4 0.39 -175.39 0.34 -149.37 0.29 C-145.7 0.29 -142.02 0.28 -138.34 0.27 C-137.26 0.27 -137.26 0.27 -136.15 0.27 C-124.52 0.25 -112.89 0.22 -101.26 0.2 C-89.55 0.18 -77.85 0.16 -66.14 0.13 C-59.81 0.12 -53.47 0.11 -47.13 0.1 C-41.32 0.09 -35.52 0.08 -29.71 0.06 C-27.61 0.06 -25.52 0.06 -23.42 0.05 C-18.81 0.04 -14.2 0.04 -9.59 0.03 C-6.39 0.02 -3.2 0.01 0 0 Z " fill="#EF580D" transform="translate(855.6815242767334,339.9795618057251)"/>
<path d="M0 0 C4.88 2.75 4.88 2.75 6 5 C7.26 14.4 7.07 23.83 6.96 33.29 C6.92 38.7 7.04 44 7.54 49.39 C8.43 58.99 7.06 66.84 2 75 C1.06 79.64 0.97 84.01 1.12 88.71 C1.35 96.71 0.78 103.17 -2 110.76 C-3.16 114.51 -3.53 118.18 -3.88 122.06 C-4.49 128.64 -6.44 133.45 -9.68 139.18 C-11.47 143.01 -11.68 146.44 -11.7 150.62 C-12.07 153.53 -13.25 154.7 -15 157 C-15.39 159.25 -15.39 159.25 -15.38 161.62 C-15.73 166.71 -17.38 170.19 -19.8 174.61 C-20.94 176.88 -21.58 178.85 -22.12 181.31 C-22.98 184.9 -24.13 186.89 -26 190 C-26.64 191.74 -27.25 193.49 -27.81 195.25 C-29.91 201.23 -32.82 207.09 -37.56 211.43 C-39.46 213.51 -40.06 215.52 -40.94 218.19 C-42.35 222.25 -43.88 226.04 -45.88 229.84 C-46.74 231.5 -47.56 233.17 -48.38 234.84 C-51.11 240.48 -53.99 245.78 -57.57 250.92 C-58.94 252.92 -60.16 254.97 -61.38 257.06 C-63.26 260.16 -65.4 262.42 -68.06 264.88 C-71.82 268.46 -73.32 271.73 -75.03 276.57 C-78.01 284.06 -84.51 289.87 -89.93 295.68 C-92.02 297.81 -92.02 297.81 -93 300 C-93.99 300.33 -94.98 300.66 -96 301 C-97.37 302.95 -97.37 302.95 -98.62 305.38 C-103.43 313.7 -108.84 320.81 -117 326 C-118.4 327.78 -119.63 329.59 -120.82 331.51 C-122 333 -122 333 -125 334 C-126.69 335.64 -128.35 337.31 -130 339 C-131.5 340.21 -133 341.43 -134.5 342.64 C-136.05 344.05 -137.18 345.51 -138.44 347.19 C-142.04 351.58 -146.75 354.27 -151.47 357.31 C-155.53 359.94 -158.88 362.61 -162.16 366.16 C-168.81 372.81 -176.93 378.17 -184.88 383.12 C-185.48 383.52 -186.09 383.91 -186.71 384.31 C-190.95 386.87 -194.09 387.39 -199 387 C-198.65 384.32 -198.25 383.22 -196.21 381.39 C-195.42 380.87 -194.63 380.35 -193.81 379.81 C-192.91 379.21 -192.01 378.6 -191.08 377.98 C-188.93 376.6 -186.77 375.22 -184.61 373.86 C-177.88 369.62 -171.59 365.25 -165.5 360.11 C-163.27 358.23 -161.01 356.45 -158.69 354.69 C-152.8 350.14 -147.21 345.25 -141.59 340.37 C-140.23 339.2 -138.86 338.02 -137.5 336.85 C-130.92 331.15 -130.92 331.15 -125.19 324.62 C-123.34 322.41 -121.63 320.78 -119.44 318.94 C-113.79 314.11 -108.94 308.54 -104 303 C-103.36 302.29 -102.72 301.57 -102.06 300.84 C-100.35 298.91 -98.67 296.96 -97 295 C-96.01 293.84 -96.01 293.84 -95 292.66 C-83.59 279.07 -73.94 264.13 -64.4 249.19 C-63.23 247.36 -62.05 245.54 -60.86 243.72 C-34.46 202.41 -18.01 155.32 -7.62 107.69 C-7.46 106.91 -7.29 106.14 -7.11 105.34 C-2.84 85.73 -0.95 66.37 -0.68 46.29 C-0.66 44.94 -0.64 43.59 -0.62 42.25 C-0.57 38.75 -0.52 35.26 -0.47 31.76 C-0.42 28.17 -0.36 24.59 -0.31 21 C-0.2 14 -0.1 7 0 0 Z " fill="#EF590F" transform="translate(949,603)"/>
<path d="M0 0 C1.69 -0 3.39 -0.01 5.08 -0.01 C9.71 -0.02 14.34 -0.02 18.97 -0.02 C23.97 -0.02 28.97 -0.03 33.97 -0.04 C44.89 -0.05 55.8 -0.06 66.72 -0.06 C73.54 -0.06 80.36 -0.07 87.18 -0.07 C106.05 -0.08 124.93 -0.09 143.81 -0.1 C145.02 -0.1 146.22 -0.1 147.47 -0.1 C149.28 -0.1 149.28 -0.1 151.13 -0.1 C153.58 -0.1 156.03 -0.1 158.48 -0.1 C159.7 -0.1 160.91 -0.1 162.17 -0.1 C181.89 -0.1 201.62 -0.12 221.35 -0.15 C241.61 -0.17 261.87 -0.18 282.13 -0.18 C293.5 -0.18 304.87 -0.19 316.25 -0.21 C325.92 -0.22 335.6 -0.23 345.27 -0.22 C350.21 -0.22 355.15 -0.22 360.09 -0.23 C364.61 -0.24 369.12 -0.24 373.64 -0.23 C375.28 -0.23 376.92 -0.23 378.55 -0.24 C380.77 -0.25 382.99 -0.24 385.21 -0.23 C386.45 -0.23 387.68 -0.23 388.95 -0.23 C392.44 0.17 394.35 1.11 397.18 3.14 C396.85 4.13 396.52 5.12 396.18 6.14 C395.34 6.14 394.49 6.14 393.62 6.14 C343.54 6.12 293.47 6.1 243.39 6.09 C237.38 6.09 231.36 6.09 225.35 6.09 C224.16 6.09 222.96 6.08 221.73 6.08 C202.34 6.08 182.96 6.07 163.57 6.06 C143.69 6.05 123.8 6.05 103.91 6.05 C91.64 6.04 79.37 6.04 67.09 6.03 C58.68 6.03 50.27 6.03 41.85 6.03 C37 6.03 32.14 6.03 27.28 6.02 C22.84 6.02 18.39 6.02 13.94 6.02 C12.34 6.02 10.73 6.02 9.12 6.02 C1.41 6 -6.16 6.11 -13.82 7.14 C-16.29 7.23 -18.77 7.27 -21.25 7.27 C-22.45 7.27 -23.64 7.27 -24.87 7.27 C-27.82 7.14 -27.82 7.14 -29.82 6.14 C-29.16 4.49 -28.5 2.84 -27.82 1.14 C-18.54 0.05 -9.32 -0.01 0 0 Z " fill="#F0580D" transform="translate(359.8163757324219,437.85955810546875)"/>
<path d="M0 0 C0 0.99 0 1.98 0 3 C-6.03 6.66 -11.8 6.71 -18.66 7.08 C-24.24 7.5 -27.46 8.46 -32 12 C-35.12 13.04 -37.47 13.14 -40.75 13.25 C-51.15 13.98 -60.36 17.14 -69 23 C-70.22 23.31 -71.43 23.62 -72.69 23.94 C-73.78 24.29 -74.87 24.64 -76 25 C-76.39 25.79 -76.78 26.58 -77.18 27.39 C-79.85 31.22 -83.01 31.58 -87.38 32.75 C-95.14 35.05 -100.72 38.18 -107.15 43.01 C-110.92 45.64 -114.58 46.93 -119 48 C-120.49 48.49 -120.49 48.49 -122 49 C-123.17 51.93 -123.17 51.93 -124 55 C-124.5 55.99 -124.5 55.99 -125 57 C-125.66 57 -126.32 57 -127 57 C-127 57.66 -127 58.32 -127 59 C-128.73 60.16 -128.73 60.16 -131.19 61.5 C-141.2 67.32 -150.07 74.56 -158 83 C-159.67 84.67 -161.33 86.33 -163 88 C-163.52 88.54 -164.03 89.08 -164.57 89.64 C-166.01 91.13 -167.5 92.57 -169 94 C-169.66 94 -170.32 94 -171 94 C-171.25 94.54 -171.51 95.09 -171.77 95.64 C-177.08 105.8 -184.22 115.6 -192.69 123.31 C-197.09 127.55 -198.38 131.44 -199.99 137.24 C-201.06 140.17 -201.97 141.27 -204.31 143.25 C-210.6 148.68 -213 157.89 -215.95 165.43 C-217 167 -217 167 -219.12 167.75 C-219.74 167.83 -220.36 167.91 -221 168 C-220.94 168.57 -220.88 169.14 -220.82 169.72 C-220.5 175.31 -221.23 177.97 -224.77 182.25 C-226.51 184.73 -226.89 187.18 -227.47 190.11 C-228 192 -228 192 -230.06 194.81 C-232.41 198.68 -232.48 201.47 -232.53 205.93 C-232.98 208.85 -233.68 210.59 -234.96 213.21 C-237.31 218.22 -237.76 222.84 -238.06 228.31 C-238.68 238.79 -238.68 238.79 -242 242 C-242.99 241.67 -243.98 241.34 -245 241 C-245.43 231.62 -244.35 223.43 -241.94 214.38 C-241.62 213.16 -241.31 211.95 -240.99 210.7 C-237.62 198 -233.25 185.88 -227.86 173.92 C-227.21 172.46 -226.59 170.98 -226 169.5 C-223.49 163.23 -220.84 157.58 -217 152 C-216.24 150.65 -215.49 149.3 -214.75 147.94 C-206.24 132.46 -196.35 117.54 -185 104 C-183.79 102.53 -183.79 102.53 -182.55 101.03 C-173.72 90.37 -164.58 79.47 -153.91 70.59 C-151.61 68.67 -149.4 66.65 -147.19 64.62 C-133.21 52.07 -118.36 42.13 -102 33 C-100.77 32.29 -99.55 31.58 -98.33 30.87 C-97.72 30.51 -97.11 30.16 -96.48 29.79 C-94.8 28.82 -93.13 27.84 -91.45 26.86 C-87.39 24.67 -83.23 22.83 -79 21 C-78.3 20.69 -77.61 20.38 -76.89 20.06 C-59.51 12.35 -41.62 6.3 -23.25 1.44 C-22.3 1.17 -21.35 0.91 -20.37 0.64 C-13.34 -1.14 -7.16 -0.98 0 0 Z " fill="#EF590F" transform="translate(250,5)"/>
<path d="M0 0 C1 2 1 2 0.4 4.21 C-2.1 10.58 -4.36 15.29 -10.84 18.33 C-14.21 20.11 -16.42 22.08 -19.12 24.75 C-23.83 29.16 -28.59 32.32 -34.22 35.41 C-36.71 36.84 -38.88 38.35 -41.12 40.12 C-44.67 42.91 -48.4 44.79 -52.51 46.63 C-55.1 48.05 -57.14 49.81 -59.37 51.73 C-62.18 53.92 -65.3 55.4 -68.5 56.94 C-69.2 57.28 -69.89 57.62 -70.61 57.98 C-75.12 60.17 -79.68 62.15 -84.31 64.06 C-89.82 66.36 -94.67 69.12 -99.6 72.48 C-104.45 75.54 -109.1 76.44 -114.7 77.24 C-117.17 77.81 -117.17 77.81 -118.54 80.07 C-119.02 80.71 -119.5 81.34 -120 82 C-122.05 82.25 -122.05 82.25 -124.31 82 C-129.1 81.76 -131.07 83.24 -135 86 C-137 86.22 -139.01 86.44 -141.02 86.59 C-143.37 87.08 -144.38 87.93 -146.19 89.5 C-149.54 92.2 -152.18 92.34 -156.44 92.5 C-160.69 92.66 -163.39 92.8 -166.81 95.38 C-171.23 98.67 -176.04 99.2 -181.37 100.01 C-184.99 100.57 -187.75 101.37 -191 103 C-193.56 103.48 -196.11 103.92 -198.69 104.31 C-205.23 105.41 -210.5 107.13 -216 111 C-216 111.66 -216 112.32 -216 113 C-212.75 114.62 -209.19 114.01 -205.62 113.94 C-186.64 113.78 -186.64 113.78 -181.68 117.95 C-180 120 -180 120 -180 122 C-185.3 122.1 -190.6 122.17 -195.91 122.22 C-197.71 122.24 -199.51 122.27 -201.31 122.3 C-203.91 122.35 -206.5 122.37 -209.1 122.39 C-210.3 122.42 -210.3 122.42 -211.53 122.45 C-216.97 122.46 -219.76 121.45 -224 118 C-225 117 -225 117 -225.19 113.75 C-224.96 109.14 -224.28 106.28 -221 103 C-218.88 102.37 -216.73 101.83 -214.57 101.34 C-213.22 101.02 -211.86 100.7 -210.51 100.39 C-209.8 100.22 -209.08 100.06 -208.34 99.89 C-196.38 97.12 -184.49 94.14 -172.69 90.75 C-171.58 90.43 -170.48 90.12 -169.34 89.79 C-163.05 87.96 -156.83 85.99 -150.63 83.89 C-148.96 83.33 -147.29 82.77 -145.62 82.23 C-141.79 80.99 -138.05 79.64 -134.32 78.12 C-131 76.79 -127.68 75.5 -124.31 74.28 C-105.35 67.39 -87.47 58.38 -69.56 49.12 C-68.55 48.6 -67.54 48.08 -66.5 47.54 C-54.32 41.17 -42.94 33.84 -31.75 25.88 C-31.16 25.46 -30.57 25.04 -29.96 24.6 C-26.56 22.17 -23.24 19.65 -20 17 C-19.37 16.48 -18.73 15.96 -18.08 15.43 C-13.23 11.3 -9.08 6.81 -4.98 1.94 C-3 0 -3 0 0 0 Z " fill="#EF5A11" transform="translate(831,579)"/>
<path d="M0 0 C13.04 0.8 25.21 6.82 36.92 12.16 C39.93 13.54 42.96 14.79 46.06 15.94 C62.77 22.53 77.94 32.84 92.18 43.64 C94.52 45.39 96.92 47.07 99.31 48.75 C105.28 53.08 110.61 57.98 116 63 C117.41 64.26 118.83 65.51 120.25 66.75 C120.88 67.3 121.52 67.86 122.17 68.43 C123.37 69.46 124.58 70.48 125.8 71.48 C129.59 74.61 132.82 77.94 136 81.68 C137.91 83.9 139.9 86.04 141.9 88.18 C150.86 97.76 158.62 108.16 166 119 C166.72 120.03 166.72 120.03 167.45 121.09 C177.08 135.22 185.36 150.18 192.09 165.91 C192.72 167.36 193.4 168.79 194.1 170.21 C202.47 187.32 206.74 206.54 211 225 C211.27 226.14 211.27 226.14 211.55 227.3 C214.12 238.3 214.33 248.76 214 260 C208.1 254.31 208.1 254.31 208 250 C208.33 248.8 208.66 247.61 209 246.38 C211.28 237.99 209.37 231.23 205.26 223.87 C203.41 219.67 202.82 215.32 202.1 210.82 C201.46 207.01 200.66 203.8 198.88 200.38 C196.92 196.54 196.72 193.29 196.56 189 C196.17 180.61 193.45 175.6 187.88 169.5 C185.04 166.35 183.94 163.47 182.76 159.45 C180.32 151.6 176.47 145.06 171.62 138.48 C169.98 135.97 168.96 133.63 167.94 130.81 C166.13 125.9 163.59 122.74 160 119 C158.91 117.78 157.83 116.55 156.75 115.31 C156.17 114.65 155.58 113.98 154.98 113.3 C152.62 110.56 150.31 107.78 148 105 C144.64 100.95 141.26 96.92 137.76 92.99 C136.48 91.54 135.21 90.08 133.96 88.61 C129.26 83.2 124.33 78.61 118.72 74.18 C115.32 71.45 112.1 68.56 108.88 65.63 C106.89 63.84 106.89 63.84 104 62 C104 61.34 104 60.68 104 60 C102.52 59.5 102.52 59.5 101 59 C99.46 57.33 99.46 57.33 97.81 55.25 C94.26 51.1 90.75 48.62 86 46 C84.33 45.05 82.67 44.11 81 43.16 C79.78 42.47 78.56 41.77 77.34 41.08 C73.68 39 70.14 36.82 66.62 34.5 C55.81 27.56 44.18 22.52 32.24 17.87 C27.33 15.96 22.56 13.91 17.81 11.62 C13.47 9.55 9.53 8.33 4.81 7.5 C2.11 6.75 0.67 5.18 -1 3 C-0.67 2.01 -0.34 1.02 0 0 Z " fill="#EF590F" transform="translate(1060,9)"/>
<path d="M0 0 C2.64 0 5.28 0 8 0 C6.8 6.1 5.12 11.77 2.88 17.56 C0.08 24.94 -2.48 32.37 -4.94 39.88 C-7.76 48.47 -10.82 56.94 -14.08 65.38 C-17.21 73.47 -20.07 81.64 -22.9 89.83 C-25.21 96.48 -27.54 103.11 -29.88 109.75 C-30.28 110.91 -30.28 110.91 -30.69 112.08 C-55.35 182.26 -55.35 182.26 -65 208.42 C-65.66 210.24 -66.33 212.06 -67 213.88 C-67.32 214.75 -67.64 215.62 -67.97 216.52 C-71.19 225.36 -74.13 234.3 -77.03 243.26 C-77.39 244.35 -77.75 245.45 -78.12 246.57 C-78.43 247.55 -78.75 248.53 -79.07 249.53 C-80 252 -80 252 -82 255 C-82.47 256.38 -82.89 257.77 -83.27 259.18 C-85.42 266.62 -88.09 273.89 -90.69 281.19 C-91.78 284.26 -92.87 287.33 -93.95 290.39 C-94.35 291.52 -94.35 291.52 -94.76 292.67 C-96.85 298.56 -98.9 304.47 -100.94 310.38 C-104.21 319.82 -107.56 329.25 -110.93 338.66 C-111.51 340.29 -112.1 341.92 -112.68 343.56 C-113.49 345.85 -114.32 348.15 -115.14 350.45 C-115.51 351.48 -115.51 351.48 -115.88 352.53 C-117.24 356.29 -118.66 359.75 -121 363 C-121.99 363.33 -122.98 363.66 -124 364 C-126.37 356.9 -120.91 348.11 -118.2 341.48 C-116.79 338.04 -115.49 334.61 -114.38 331.06 C-113.47 328.22 -112.38 325.65 -111 323 C-108.32 317.83 -106.29 312.55 -105.62 306.75 C-104.45 299.72 -101.85 292.69 -97.81 286.81 C-96.05 284.08 -95.65 282.79 -95.12 279.69 C-94.27 274.63 -92.75 269.95 -91.06 265.12 C-90.81 264.39 -90.56 263.65 -90.3 262.89 C-89.21 259.85 -88.3 257.39 -86.31 254.81 C-84.55 252.38 -84.76 250.83 -84.94 247.88 C-85.09 245.24 -85.09 245.24 -85 243 C-84.34 242.34 -83.68 241.68 -83 241 C-82.01 241 -81.02 241 -80 241 C-79.81 239.27 -79.81 239.27 -79.62 237.5 C-78.62 229.73 -76.29 222.91 -73.43 215.65 C-71.61 211 -69.87 206.33 -68.14 201.64 C-66.97 198.5 -65.74 195.41 -64.34 192.35 C-63.08 189.19 -62.68 187.11 -62.62 183.75 C-62.11 176.06 -58.68 169.83 -54.88 163.25 C-51.71 157.76 -49.61 152.05 -47.75 146.02 C-47 144 -47 144 -45 141 C-44.53 139.05 -44.06 137.1 -43.66 135.13 C-43 133 -43 133 -41.52 130.68 C-39.69 127.46 -39.22 124.71 -38.62 121.06 C-37.47 114.65 -35.62 108.79 -33.34 102.68 C-28.62 89.85 -28.62 89.85 -26.56 76.44 C-26.25 71.07 -23.58 67.84 -20 64 C-18.96 63.08 -18.96 63.08 -17.9 62.14 C-15.57 59.51 -15.13 57.55 -14.44 54.12 C-13.44 49.66 -12.2 46.04 -10 42 C-9.21 39.99 -8.47 37.97 -7.75 35.93 C-7 34 -7 34 -5.93 32.13 C-4.73 29.38 -4.72 27.06 -4.62 24.06 C-4.26 17.9 -2.86 12.59 -0.84 6.78 C0.19 3.85 0.19 3.85 0 0 Z " fill="#EF5A11" transform="translate(619,504)"/>
<path d="M0 0 C0.33 0 0.66 0 1 0 C1.01 0.59 1.02 1.18 1.03 1.79 C1.14 7.94 1.25 14.09 1.37 20.23 C1.42 22.53 1.46 24.82 1.5 27.11 C1.56 30.41 1.62 33.71 1.68 37.01 C1.71 38.55 1.71 38.55 1.73 40.12 C1.75 41.08 1.77 42.04 1.79 43.03 C1.81 43.87 1.83 44.71 1.84 45.58 C1.94 47.99 1.94 47.99 2.5 50.23 C3.08 53.46 3.12 56.49 3.12 59.77 C3.12 60.44 3.13 61.11 3.13 61.8 C3.13 64.05 3.12 66.31 3.12 68.56 C3.12 70.19 3.12 71.82 3.12 73.45 C3.13 77.93 3.12 82.41 3.12 86.89 C3.11 91.72 3.11 96.55 3.11 101.38 C3.11 109.75 3.11 118.12 3.11 126.5 C3.1 138.6 3.09 150.7 3.09 162.8 C3.09 182.44 3.08 202.08 3.08 221.71 C3.07 240.79 3.06 259.86 3.05 278.94 C3.05 280.12 3.05 281.29 3.05 282.5 C3.05 288.4 3.05 294.3 3.05 300.19 C3.04 349.13 3.02 398.06 3 447 C2.01 446.67 1.02 446.34 0 446 C-0.02 444.41 -0.02 444.41 -0.03 442.78 C-0.13 432.79 -0.23 422.8 -0.34 412.8 C-0.39 407.67 -0.45 402.53 -0.5 397.39 C-0.54 392.44 -0.6 387.48 -0.65 382.53 C-0.67 380.64 -0.69 378.74 -0.71 376.85 C-0.73 374.2 -0.76 371.56 -0.79 368.92 C-0.8 368.13 -0.81 367.33 -0.81 366.52 C-0.54 362.96 -0.54 362.96 -2 360 C-2.12 357 -2.12 357 -2 354 C-1.67 353.67 -1.34 353.34 -1 353 C-0.91 351.62 -0.89 350.24 -0.9 348.86 C-0.91 347.97 -0.91 347.08 -0.91 346.16 C-0.92 345.18 -0.93 344.19 -0.94 343.18 C-0.95 341.05 -0.95 338.93 -0.96 336.8 C-0.97 335.67 -0.98 334.54 -0.98 333.38 C-1.1 311.75 -0.88 290.14 -0.27 268.52 C-0.23 267.1 -0.23 267.1 -0.19 265.66 C-0.15 263.91 -0.1 262.15 -0.04 260.4 C-0.02 259.63 0 258.85 0.02 258.06 C0.05 257.06 0.05 257.06 0.08 256.04 C0.06 253.97 0.06 253.97 -0.5 251.87 C-1.13 248.24 -1.14 244.68 -1.13 241 C-1.13 240.2 -1.13 239.4 -1.13 238.58 C-1.14 235.89 -1.13 233.21 -1.13 230.53 C-1.13 228.6 -1.13 226.68 -1.13 224.75 C-1.14 219.5 -1.14 214.26 -1.13 209.02 C-1.13 203.48 -1.13 197.95 -1.14 192.42 C-1.14 183.09 -1.14 173.75 -1.13 164.42 C-1.12 153.75 -1.13 143.09 -1.13 132.42 C-1.14 123.19 -1.14 113.97 -1.13 104.74 C-1.13 99.26 -1.13 93.78 -1.14 88.31 C-1.15 58.86 -0.77 29.44 0 0 Z " fill="#F9D0C3" transform="translate(1277,279)"/>
<path d="M0 0 C0.99 0.5 0.99 0.5 2 1 C-2.86 8.11 -8.87 11.43 -16.38 15.14 C-18.77 16.32 -20.78 17.53 -23.01 19.05 C-26.3 21.19 -29.66 22.62 -33.31 24 C-38.28 25.92 -43.17 27.92 -48.01 30.14 C-50.06 31.03 -52.13 31.73 -54.25 32.44 C-57.25 33.51 -58.12 34.13 -60.44 36.56 C-63.55 39.52 -65.77 39.9 -69.91 40.54 C-72.29 40.93 -72.29 40.93 -75 43 C-77.47 43.56 -79.93 43.95 -82.43 44.34 C-85.07 44.88 -85.07 44.88 -87.31 46.48 C-96.03 51.41 -108.63 50.35 -118.19 48.88 C-119.35 48.7 -119.35 48.7 -120.54 48.52 C-125.75 47.59 -129.54 45.85 -134 43 C-134 42.34 -134 41.68 -134 41 C-137.83 38.76 -140.57 38.92 -144.88 39.22 C-147 39 -147 39 -148.78 37.68 C-150 36 -150 36 -150 33 C-152.99 31.93 -155.79 31.03 -158.94 30.56 C-161.92 30.02 -164.37 29.06 -167.11 27.8 C-169.07 26.97 -171.01 26.44 -173.06 25.88 C-179.45 23.81 -184.85 19.83 -190.36 16.1 C-191.82 15.12 -193.3 14.18 -194.79 13.25 C-200.2 9.86 -202.94 7.17 -205 1 C-201.53 2.32 -198.31 3.84 -195.07 5.65 C-194.12 6.18 -193.17 6.7 -192.19 7.24 C-191.18 7.8 -190.17 8.36 -189.12 8.94 C-172.53 18.03 -155.43 26.79 -137.69 33.44 C-133.4 35.06 -129.16 36.76 -124.94 38.56 C-110.24 45.01 -110.24 45.01 -94.88 42.95 C-93.71 42.5 -92.54 42.06 -91.33 41.6 C-90.08 41.11 -88.82 40.62 -87.56 40.12 C-86.25 39.62 -84.94 39.11 -83.63 38.61 C-58.05 28.67 -31.93 17.68 -8.43 3.36 C-6.22 2.12 -4.46 1.5 -2 1 C-1.34 0.67 -0.68 0.34 0 0 Z " fill="#EF5910" transform="translate(744,992)"/>
<path d="M0 0 C1.67 -0.04 3.33 -0.04 5 0 C7.01 2.01 6.86 5.73 7.3 8.46 C7.84 11.05 7.84 11.05 9.52 12.99 C11.37 15.5 11.46 17.29 11.75 20.38 C12.4 24.55 13.05 26.65 16.38 29.31 C16.99 29.76 17.61 30.2 18.25 30.66 C20.95 32.72 22.33 35.06 24 38 C24 38.66 24 39.32 24 40 C24.66 40 25.32 40 26 40 C26.33 40.95 26.66 41.9 27 42.88 C29.34 48.3 33.22 52.52 37 57 C37.93 58.12 38.86 59.24 39.79 60.36 C40.76 61.51 41.72 62.66 42.69 63.81 C43.36 64.62 43.36 64.62 44.05 65.45 C47.73 69.79 51.66 73.75 55.81 77.62 C58 80 58 80 58 83 C58.66 83 59.32 83 60 83 C61.48 84.5 61.48 84.5 63.19 86.56 C68.81 93.31 74.89 98.92 82 104.06 C86.59 107.41 91.04 110.83 95.33 114.56 C103.04 121.2 111.17 126.96 120 132 C121.67 133.04 123.33 134.08 125 135.12 C128.3 137.13 131.49 138.63 135.12 139.94 C138.84 141.31 141.25 142.9 144.12 145.62 C147.35 148.68 149.73 149.83 154.06 150.61 C157.22 151.25 160.05 152.71 163 154 C164.22 154.33 165.43 154.66 166.69 155 C170 156 170 156 171.87 157.46 C174.35 159.26 176.47 159.88 179.44 160.62 C180.36 160.86 181.29 161.1 182.25 161.35 C184.98 162.05 184.98 162.05 187.72 162.34 C190 163 190 163 191.14 165.04 C191.43 165.69 191.71 166.33 192 167 C185.23 166.47 179.34 165.09 172.94 162.88 C171.57 162.41 171.57 162.41 170.17 161.93 C161.9 159.07 153.92 155.73 146 152 C144.9 151.48 143.8 150.97 142.66 150.44 C137.22 147.81 132.2 144.92 127.25 141.48 C124.9 139.93 122.5 138.66 120 137.38 C112.58 133.41 105.89 128.42 99.09 123.5 C97.17 122.12 95.24 120.78 93.29 119.46 C84.99 113.77 77.73 107.35 70.47 100.38 C68.7 98.71 66.86 97.13 65 95.56 C56.02 87.8 47.6 79.11 40 70 C39.29 69.19 38.58 68.39 37.86 67.55 C30.45 58.97 24.01 49.75 17.63 40.39 C16.56 38.83 15.49 37.28 14.41 35.73 C10.75 30.43 7.9 24.99 5.25 19.12 C4.49 17.46 3.72 15.8 2.95 14.13 C2.62 13.41 2.3 12.69 1.96 11.94 C0.93 9.76 0.93 9.76 -1 7 C-0.62 3.31 -0.62 3.31 0 0 Z " fill="#EF590F" transform="translate(29,1103)"/>
<path d="M0 0 C2.74 1.47 3.39 2.45 4.44 5.31 C1.67 8.08 -5.16 7.94 -8.88 8.56 C-9.52 8.67 -10.16 8.78 -10.82 8.89 C-23.64 11.03 -36.52 12.6 -49.44 14.06 C-50.37 14.17 -51.3 14.28 -52.26 14.39 C-54.98 14.69 -57.71 15 -60.43 15.3 C-61.21 15.39 -62 15.47 -62.81 15.56 C-79.97 17.41 -97.06 17.46 -114.3 17.45 C-116.97 17.45 -119.63 17.45 -122.29 17.45 C-127.84 17.45 -133.38 17.45 -138.93 17.44 C-145.34 17.44 -151.75 17.44 -158.16 17.44 C-163.69 17.45 -169.21 17.45 -174.74 17.45 C-178.03 17.45 -181.32 17.45 -184.62 17.45 C-188.27 17.45 -191.92 17.45 -195.57 17.44 C-197.21 17.44 -197.21 17.44 -198.88 17.45 C-199.87 17.45 -200.85 17.44 -201.87 17.44 C-202.74 17.44 -203.6 17.44 -204.49 17.44 C-206.56 17.31 -206.56 17.31 -208.56 16.31 C-207.88 14.38 -207.88 14.38 -206.56 12.31 C-201.75 10.8 -196.55 11.14 -191.56 11.11 C-190.55 11.1 -189.55 11.09 -188.51 11.08 C-185.17 11.05 -181.83 11.02 -178.5 11 C-176.15 10.98 -173.8 10.95 -171.44 10.93 C-166.49 10.89 -161.54 10.85 -156.59 10.81 C-150.36 10.76 -144.13 10.71 -137.89 10.65 C-96.83 10.29 -96.83 10.29 -81.39 10.32 C-80.55 10.32 -79.7 10.32 -78.84 10.33 C-75.04 10.33 -71.25 10.35 -67.46 10.38 C-53.73 10.76 -53.73 10.76 -40.68 7.28 C-34.76 4.69 -29.12 4.79 -22.75 4.81 C-14.73 5.13 -14.73 5.13 -7.49 2.34 C-6.85 1.67 -6.22 1 -5.56 0.31 C-2.56 -0.69 -2.56 -0.69 0 0 Z " fill="#EF5910" transform="translate(674.5625,921.6875)"/>
<path d="M0 0 C0.33 0 0.66 0 1 0 C1.01 0.79 1.02 1.59 1.03 2.4 C1.13 9.88 1.23 17.35 1.34 24.83 C1.39 28.67 1.45 32.51 1.5 36.35 C1.55 40.06 1.6 43.77 1.65 47.48 C1.67 48.9 1.69 50.31 1.71 51.72 C1.73 53.71 1.76 55.69 1.79 57.67 C1.81 58.8 1.83 59.93 1.84 61.09 C1.98 63.59 2.38 65.6 3 68 C3.11 69.73 3.17 71.46 3.19 73.19 C3.21 74.22 3.22 75.26 3.24 76.33 C3.26 78 3.26 78 3.28 79.71 C3.3 80.87 3.32 82.03 3.34 83.23 C3.4 86.94 3.45 90.66 3.5 94.38 C3.8 121.51 3.8 121.51 6.88 148.44 C7.05 149.51 7.23 150.59 7.41 151.7 C9 165.22 9 165.22 13.02 178.02 C14.31 180.62 14.6 183.07 15.06 185.94 C19.03 207.66 26.57 230.77 37.28 250.16 C38.52 253.33 37.81 255.77 37 259 C35.35 258.67 33.7 258.34 32 258 C28.12 246.01 28.12 246.01 27.56 241.44 C26.83 236.95 25.07 233.16 23.27 229 C21.87 225.7 20.71 222.37 19.62 218.95 C19.08 217.24 18.45 215.56 17.81 213.88 C17 211 17 211 17.25 207.88 C16.92 202.81 14.91 199.38 12.51 194.96 C11.01 192.02 10.01 189.14 9 186 C8.65 185.34 8.3 184.69 7.94 184.01 C6.69 181.33 6.39 178.8 6 175.88 C5.44 171.9 4.8 168.03 3.88 164.12 C2.95 159.8 2.97 155.73 3.06 151.31 C3.15 145.63 2.52 142.14 0 137 C-0.88 133.03 -1.44 129.03 -2 125 C-2.14 124.15 -2.27 123.31 -2.41 122.44 C-3.12 117.58 -2.63 114.68 -1 110 C-1.22 108.38 -1.45 106.77 -1.71 105.16 C-3.98 88.46 -3.12 70.86 -3.18 54.04 C-3.18 52 -3.19 49.96 -3.21 47.93 C-3.28 36.8 -3.05 25.89 -1.61 14.85 C-1.19 11.49 -0.91 9.26 -2 6 C-1.06 2.81 -1.06 2.81 0 0 Z " fill="#EF5A11" transform="translate(327,544)"/>
<path d="M0 0 C0.99 0 1.98 0 3 0 C7.57 8.21 11.94 16.52 16 25 C16.38 25.79 16.76 26.58 17.15 27.39 C34.44 64.38 41.18 105.52 26.99 144.61 C21.87 158.15 21.87 158.15 18 162 C17.28 163.72 16.56 165.44 15.87 167.17 C14.43 170.2 12.31 172.54 10.12 175.06 C9.28 176.04 8.44 177.02 7.57 178.04 C6.72 179.01 5.87 179.99 5 181 C4.56 181.56 4.12 182.13 3.67 182.71 C2.51 184.19 1.26 185.6 0 187 C-0.99 187 -1.98 187 -3 187 C-2.46 182.39 -0.6 179.57 2.06 175.81 C2.46 175.24 2.86 174.67 3.28 174.09 C5.81 170.53 8.5 167.16 11.31 163.81 C15.1 159.17 17.06 154.61 19 149 C19.68 147.37 20.37 145.75 21.06 144.12 C23.3 138.56 24.7 132.84 26 127 C26.26 125.85 26.26 125.85 26.53 124.68 C27.03 121.84 27.16 119.17 27.19 116.28 C27.21 115.15 27.22 114.03 27.24 112.87 C27.29 107.76 27.33 102.65 27.35 97.54 C27.36 94.85 27.39 92.15 27.43 89.46 C27.49 85.56 27.51 81.67 27.52 77.78 C27.55 76.58 27.57 75.37 27.59 74.13 C27.72 67.52 27.72 67.52 24.53 61.97 C23.7 61.32 22.86 60.67 22 60 C21.22 57.82 21.22 57.82 21 55.64 C20.89 54.83 20.79 54.03 20.69 53.2 C20.56 51.95 20.56 51.95 20.44 50.69 C19.55 42.35 17.62 35.72 12.06 29.25 C8.82 25.13 7.08 20.72 5.27 15.83 C3.9 12.77 2.11 10.59 0 8 C-1.35 2.7 -1.35 2.7 0 0 Z " fill="#EF5A12" transform="translate(837,667)"/>
<path d="M0 0 C1.65 0.33 3.3 0.66 5 1 C5 1.66 5 2.32 5 3 C5.66 3 6.32 3 7 3 C7.25 3.78 7.5 4.57 7.75 5.38 C9.21 8.44 10.05 8.62 13 10 C14.92 13.14 15.67 16.38 16.5 19.94 C17.49 24.23 17.49 24.23 19.12 28.31 C20.43 32.3 19.95 35.98 19.62 40.12 C19.51 41.83 19.39 43.53 19.28 45.23 C19.2 46.46 19.2 46.46 19.12 47.72 C18.97 50.61 19.03 53.48 19.12 56.38 C19.18 60.38 18.65 62.82 16 66 C15.67 66.33 15.34 66.66 15 67 C15.08 67.99 15.16 68.98 15.25 70 C15.34 77.35 9.79 83.58 5.33 88.98 C3.84 91.03 3.84 91.03 3.15 93.86 C1.74 97.7 -0.48 100.22 -3.25 103.12 C-3.72 103.64 -4.18 104.15 -4.66 104.68 C-7.8 108.04 -11.07 110.55 -15 113 C-15.63 113.46 -16.26 113.91 -16.91 114.38 C-20.83 117.09 -24.27 118.43 -28.94 119.44 C-35.34 120.86 -40.95 123.57 -45.37 128.54 C-48.18 131.06 -51.88 130.98 -55.5 131.38 C-56.66 131.54 -56.66 131.54 -57.84 131.7 C-60.09 131.96 -60.09 131.96 -64 132 C-65.74 130.5 -65.74 130.5 -67 129 C-64.86 126.86 -63.76 126.44 -60.94 125.56 C-59.87 125.22 -59.87 125.22 -58.78 124.88 C-57.19 124.38 -55.59 123.87 -54 123.37 C-48.51 121.6 -43.26 119.49 -38 117.12 C-37.21 116.77 -36.42 116.42 -35.61 116.05 C-23.02 110.33 -12.81 103.85 -4 93 C-2.98 91.82 -2.98 91.82 -1.94 90.62 C11.74 72.09 13.87 51.43 12 29 C10.35 19.84 6.25 11.49 1.1 3.79 C0 2 0 2 0 0 Z " fill="#EF5A10" transform="translate(703,730)"/>
<path d="M0 0 C1.22 0 1.22 0 2.47 0 C9.15 0.07 15.64 0.44 21.8 3.23 C25.21 4.44 28.21 4.47 31.81 4.56 C38.04 4.83 43.86 5.55 48.5 10.19 C50.09 10.3 51.68 10.34 53.27 10.36 C54.73 10.4 54.73 10.4 56.21 10.44 C58.27 10.48 60.32 10.51 62.38 10.53 C70.02 10.75 70.02 10.75 72.7 13.2 C73.59 14.19 73.59 14.19 74.5 15.19 C77.25 15.51 79.7 15.64 82.44 15.62 C89.54 15.79 95.05 17.12 101.62 19.98 C104.91 21.36 108.09 22.12 111.6 22.73 C113.5 23.19 113.5 23.19 115.51 24.22 C117.7 25.44 117.7 25.44 121.25 25.44 C131.43 26.42 141.46 30.46 148.64 37.72 C151.56 40.03 154.64 40.29 158.26 40.8 C161.13 41.3 163.03 42.67 165.5 44.19 C166.99 44.56 168.49 44.89 170 45.19 C173.75 45.93 176.26 47.11 179.5 49.19 C181.6 49.93 183.7 50.61 185.83 51.25 C187.5 52.19 187.5 52.19 188.23 54.29 C188.32 54.91 188.41 55.54 188.5 56.19 C183.92 56.69 181.22 56.25 177.16 54.03 C170.57 50.62 163.68 48.01 156.75 45.38 C155.36 44.84 153.98 44.31 152.59 43.78 C149.18 42.48 145.77 41.18 142.35 39.89 C140.67 39.25 139 38.61 137.32 37.97 C122.94 32.47 108.37 28.14 93.5 24.19 C91.68 23.7 89.86 23.2 88.05 22.71 C86.39 22.26 84.72 21.82 83.06 21.38 C82.34 21.18 81.61 20.99 80.86 20.78 C76.31 19.59 71.75 18.6 67.13 17.7 C63.45 16.98 59.78 16.21 56.11 15.44 C52.98 14.78 49.84 14.13 46.71 13.48 C42.96 12.7 39.22 11.91 35.48 11.11 C24.28 8.75 13.04 7.03 1.7 5.49 C0.55 5.34 -0.6 5.18 -1.79 5.02 C-2.82 4.88 -3.85 4.75 -4.91 4.6 C-7.5 4.19 -7.5 4.19 -10.5 3.19 C-10.5 2.53 -10.5 1.87 -10.5 1.19 C-7.22 -0.45 -3.6 -0 0 0 Z " fill="#EF5A11" transform="translate(763.5,244.8125)"/>
<path d="M0 0 C0.99 0.5 0.99 0.5 2 1 C3.32 5.35 3.11 9.8 3.06 14.3 C3.05 16.05 3.05 17.8 3.04 19.55 C3.03 20.48 3.02 21.42 3.02 22.38 C2.89 42.88 3.09 63.38 3.41 83.87 C3.44 85.99 3.47 88.1 3.5 90.21 C3.55 94.22 3.62 98.24 3.68 102.25 C3.7 103.43 3.72 104.61 3.73 105.83 C3.86 112.88 4.24 119.87 4.78 126.89 C5.23 133.19 5.19 139.5 5.19 145.81 C5.19 146.54 5.19 147.26 5.19 148 C5.19 160.58 4.57 173.06 3.72 185.6 C2.81 199.04 2.06 212.62 4 226 C4.33 226.33 4.66 226.66 5 227 C5.07 229.7 5.09 232.37 5.06 235.06 C5.06 235.82 5.05 236.58 5.05 237.36 C5.04 239.24 5.02 241.12 5 243 C4.01 243 3.02 243 2 243 C1.94 241.78 1.88 240.57 1.82 239.32 C1.73 237.73 1.65 236.15 1.56 234.56 C1.52 233.76 1.48 232.96 1.44 232.13 C1.59 228.25 1.59 228.25 0 225 C-0.1 222.1 -0.13 219.23 -0.12 216.34 C-0.12 215.42 -0.12 214.5 -0.12 213.55 C-0.12 210.44 -0.12 207.34 -0.11 204.23 C-0.11 202.02 -0.11 199.8 -0.11 197.58 C-0.11 191.54 -0.11 185.5 -0.1 179.46 C-0.1 173.16 -0.09 166.86 -0.09 160.55 C-0.09 149.97 -0.08 139.38 -0.08 128.79 C-0.07 117.89 -0.06 106.98 -0.05 96.08 C-0.05 95.4 -0.05 94.73 -0.05 94.04 C-0.05 90.67 -0.05 87.3 -0.05 83.93 C-0.04 55.95 -0.02 27.98 0 0 Z " fill="#E98459" transform="translate(0,436)"/>
<path d="M0 0 C0.99 0.5 0.99 0.5 2 1 C2.72 11.73 3.15 22.39 3.13 33.14 C3.13 34.64 3.14 36.14 3.14 37.64 C3.14 41.81 3.13 45.98 3.13 50.15 C3.12 52.84 3.12 55.52 3.12 58.2 C3.12 87.28 2.95 116.37 2.76 145.45 C2.74 148.25 2.72 151.06 2.7 153.86 C2.59 171.8 2.47 189.73 2.33 207.67 C2.28 214.92 2.22 222.17 2.18 229.42 C2.14 234.51 2.1 239.6 2.06 244.69 C2.03 247.81 2.01 250.93 1.99 254.04 C1.98 255.49 1.97 256.93 1.96 258.38 C1.94 260.33 1.93 262.29 1.92 264.25 C1.91 265.34 1.9 266.43 1.89 267.56 C1.72 269.95 1.72 269.95 3 271 C3.09 272.81 3.12 274.62 3.11 276.44 C3.11 278.18 3.11 278.18 3.11 279.96 C3.11 281.22 3.1 282.48 3.1 283.79 C3.1 285.07 3.09 286.36 3.09 287.68 C3.09 291.11 3.08 294.53 3.07 297.96 C3.06 301.45 3.05 304.94 3.05 308.43 C3.04 315.29 3.02 322.14 3 329 C2.67 329 2.34 329 2 329 C1.97 328.14 1.95 327.28 1.92 326.39 C1.83 323.15 1.73 319.91 1.63 316.68 C1.58 315.28 1.54 313.89 1.5 312.5 C1.44 310.48 1.38 308.46 1.32 306.44 C1.28 305.23 1.24 304.02 1.21 302.78 C1.06 300.13 0.84 297.63 0.49 295.02 C-0.15 289.31 -0.14 283.64 -0.12 277.91 C-0.12 276.72 -0.12 275.52 -0.12 274.3 C-0.12 271.01 -0.12 267.72 -0.12 264.44 C-0.11 260.89 -0.11 257.33 -0.11 253.78 C-0.11 247.64 -0.11 241.49 -0.11 235.34 C-0.1 226.45 -0.09 217.57 -0.09 208.68 C-0.09 194.26 -0.08 179.84 -0.08 165.42 C-0.07 151.42 -0.06 137.41 -0.05 123.41 C-0.05 122.54 -0.05 121.68 -0.05 120.79 C-0.05 116.46 -0.05 112.12 -0.05 107.79 C-0.04 71.86 -0.02 35.93 0 0 Z " fill="#F8CFC2" transform="translate(0,661)"/>
<path d="M0 0 C0.99 0.33 1.98 0.66 3 1 C3 1.66 3 2.32 3 3 C-0.14 5.9 -3.61 8.41 -7 11 C-7.78 11.62 -8.57 12.24 -9.38 12.88 C-30.19 28.82 -55.48 40.33 -80.12 48.98 C-82.26 49.74 -84.38 50.52 -86.5 51.33 C-98.78 55.93 -111.39 59.12 -124.1 62.28 C-125.87 62.72 -127.64 63.17 -129.41 63.64 C-133.01 64.6 -136.27 65.24 -140 65.12 C-140.76 65.11 -141.53 65.09 -142.31 65.07 C-142.87 65.05 -143.43 65.02 -144 65 C-141.69 61.29 -139.68 60.2 -135.56 58.88 C-131.7 57.63 -131.7 57.63 -128.04 55.91 C-125.27 54.68 -122.83 54.72 -119.81 54.62 C-114.56 54.3 -110.95 53.36 -106.32 50.97 C-103.51 49.79 -100.89 49.45 -97.88 49.06 C-93 48.38 -90.43 47.22 -86.72 44.1 C-84 42.36 -81.27 42.39 -78.11 42.34 C-75.88 42.16 -75.88 42.16 -74.1 40.5 C-70.69 38.06 -67.06 38.58 -62.97 38.5 C-59.28 37.88 -57.8 36.45 -55 34 C-53.05 32.79 -51.06 31.63 -49.06 30.5 C-48.47 30.17 -47.89 29.83 -47.28 29.49 C-43.44 27.32 -39.55 25.23 -35.65 23.16 C-26.08 18.09 -17.03 13.06 -8.66 6.16 C-5.86 3.88 -3.12 1.82 0 0 Z " fill="#EF5A11" transform="translate(825,860)"/>
<path d="M0 0 C0.66 0 1.32 0 2 0 C5.26 6.51 1.98 15.18 0.25 21.75 C-0.03 22.82 -0.3 23.9 -0.59 25.01 C-5.08 42.17 -11.43 58.76 -18.99 74.81 C-19.71 76.37 -20.38 77.96 -21 79.57 C-21.89 81.73 -22.84 83.5 -24.12 85.44 C-26.17 88.62 -28.06 91.86 -29.9 95.15 C-32.87 100.45 -35.91 105.49 -39.69 110.25 C-41.06 112.07 -42.15 113.94 -43.25 115.94 C-45 119 -45 119 -47 120 C-47.37 120.8 -47.74 121.61 -48.12 122.44 C-50.51 127.49 -54.21 131.93 -58 136 C-58.66 136 -59.32 136 -60 136 C-59.51 128.19 -56 123.12 -50.81 117.44 C-48.56 114.92 -47.98 113.92 -47.06 110.5 C-45.97 106.91 -45.37 106.12 -42.75 103.69 C-35.53 96.93 -32.21 88.24 -28.51 79.25 C-27.18 76.39 -25.89 74.33 -23.88 71.94 C-20.48 67.82 -19.42 63.35 -18 58.27 C-16.2 52.39 -13.4 47.1 -10 42 C-9.42 38.82 -9.05 35.63 -8.66 32.42 C-8 29 -8 29 -6.5 25.58 C-4.58 20.99 -4.24 16.78 -3.83 11.87 C-3.37 7.32 -2.28 3.96 0 0 Z " fill="#EF5910" transform="translate(1272,1034)"/>
<path d="M0 0 C0.99 0 1.98 0 3 0 C5.19 4.37 4.73 9.29 4 14 C1.71 20.07 -1.71 26.15 -5.77 31.2 C-7.55 33.8 -6.9 36.13 -6.79 39.17 C-7.46 48.34 -11.5 56.82 -17 64 C-18.07 68.02 -18.1 71.85 -18 76 C-18.66 76 -19.32 76 -20 76 C-20.29 76.58 -20.58 77.15 -20.88 77.75 C-22 80 -22 80 -23.12 81.88 C-24.19 84.05 -24.19 84.05 -23.94 86.81 C-24.08 93.84 -28.73 101.56 -33 107 C-35.19 107.79 -35.19 107.79 -37 108 C-37.66 107.01 -38.32 106.02 -39 105 C-38 102 -38 102 -36.62 100.8 C-34.13 98.04 -33.21 94.7 -32 91.25 C-31.56 90.01 -31.56 90.01 -31.1 88.75 C-30.06 85.83 -29.03 82.92 -28 80 C-27.19 77.72 -26.37 75.43 -25.55 73.15 C-22.69 65.1 -19.84 57.05 -17 49 C-16.72 48.22 -16.45 47.43 -16.16 46.62 C-14.41 41.66 -12.66 36.7 -10.92 31.74 C-10.36 30.15 -9.79 28.55 -9.23 26.95 C-6.07 17.99 -2.96 9.02 0 0 Z " fill="#EF5A11" transform="translate(405,699)"/>
<path d="M0 0 C0.99 0.33 1.98 0.66 3 1 C4.06 5.31 4.14 9.48 4.12 13.89 C4.12 14.68 4.12 15.47 4.12 16.28 C4.12 18.92 4.12 21.55 4.11 24.19 C4.11 26.08 4.11 27.98 4.11 29.87 C4.11 35.01 4.11 40.14 4.1 45.28 C4.1 50.65 4.09 56.01 4.09 61.38 C4.09 71.55 4.08 81.71 4.07 91.87 C4.06 103.45 4.06 115.02 4.05 126.59 C4.04 150.39 4.02 174.2 4 198 C3.01 197.67 2.02 197.34 1 197 C0.99 195.94 0.98 194.87 0.97 193.78 C0.87 183.79 0.77 173.8 0.66 163.8 C0.61 158.67 0.55 153.53 0.5 148.39 C0.46 143.44 0.4 138.48 0.35 133.53 C0.33 131.64 0.31 129.74 0.29 127.85 C0.27 125.2 0.24 122.56 0.21 119.92 C0.2 119.13 0.19 118.33 0.19 117.52 C0.46 113.96 0.46 113.96 -1 111 C-1.12 108 -1.12 108 -1 105 C-0.51 104.5 -0.51 104.5 0 104 C0.09 102.62 0.11 101.24 0.1 99.86 C0.09 98.97 0.09 98.08 0.09 97.16 C0.08 96.18 0.07 95.19 0.06 94.18 C0.05 92.05 0.05 89.93 0.04 87.8 C0.03 86.67 0.02 85.54 0.02 84.38 C-0.1 62.75 0.12 41.14 0.73 19.52 C0.76 18.57 0.78 17.63 0.81 16.66 C0.85 14.91 0.9 13.15 0.96 11.4 C1.06 7.44 1.01 3.87 0 0 Z " fill="#F0AB8C" transform="translate(1276,528)"/>
<path d="M0 0 C2.48 0.99 2.48 0.99 5 2 C5.5 9.38 5.5 9.38 3.12 12.31 C0.36 15.82 0.18 18.82 -0.31 23.18 C-1 26 -1 26 -2.92 28.71 C-5.67 33.06 -6.34 37.25 -7.31 42.25 C-8.87 49.52 -10.51 54.68 -15.29 60.49 C-19.98 67.38 -21.72 76.78 -23 84.88 C-23.4 87.2 -23.4 87.2 -24 89 C-26.62 90.62 -26.62 90.62 -29 91 C-30.04 85.18 -30 81.7 -27.78 76.07 C-27.53 75.42 -27.28 74.78 -27.03 74.11 C-26.48 72.7 -25.93 71.29 -25.38 69.89 C-23.85 66.06 -22.39 62.2 -20.92 58.35 C-20.6 57.53 -20.29 56.71 -19.97 55.87 C-16.02 45.53 -12.42 35.08 -8.81 24.62 C-7.85 21.83 -6.88 19.04 -5.91 16.25 C-5.34 14.58 -4.76 12.9 -4.18 11.23 C-2.87 7.45 -1.53 3.7 0 0 Z " fill="#EF5A10" transform="translate(473,508)"/>
<path d="M0 0 C0.89 -0.01 1.77 -0.03 2.68 -0.04 C7.11 -0.05 10.6 0.09 14.62 2.19 C14.62 2.52 14.62 2.85 14.62 3.19 C8.33 4.98 2.39 5.61 -4.12 6 C-31.92 7.91 -60.53 10.24 -87.68 16.74 C-92.19 17.81 -96.27 18.42 -100.94 18.31 C-102.49 18.29 -102.49 18.29 -104.07 18.26 C-104.83 18.23 -105.59 18.21 -106.38 18.19 C-101.75 12.31 -101.75 12.31 -98.38 11.19 C-96.78 11.16 -95.18 11.2 -93.59 11.27 C-92.17 11.3 -92.17 11.3 -90.73 11.34 C-88.77 11.41 -86.8 11.48 -84.84 11.58 C-78.46 11.72 -74.98 10.68 -69.63 7.3 C-65.54 5.28 -61.39 5.78 -56.94 6.06 C-48.16 6.54 -41.49 5.09 -33.29 2.04 C-29.45 0.92 -25.79 0.72 -21.81 0.56 C-20.59 0.51 -20.59 0.51 -19.34 0.45 C-12.9 0.19 -6.45 0.06 0 0 Z " fill="#EF5B13" transform="translate(577.375,237.8125)"/>
<path d="M0 0 C4.26 5.22 5.13 7.77 4.99 14.42 C4.97 15.94 4.96 17.45 4.94 18.97 C4.91 21.36 4.88 23.74 4.83 26.13 C4.79 28.44 4.76 30.74 4.74 33.05 C4.72 33.75 4.7 34.46 4.69 35.19 C4.66 40.99 6.41 44.68 9.63 49.38 C11.73 53.39 11.77 57.59 12.08 62.03 C12.56 67.09 14.04 69.94 17 74 C17.98 76.46 17.98 76.46 18.62 78.81 C18.86 79.67 19.1 80.53 19.34 81.41 C23.72 98.68 23.72 98.68 22 105 C19.81 101.71 18.43 98.34 17 94.69 C16.74 94.04 16.48 93.38 16.21 92.71 C14.68 88.85 13.28 84.96 12 81 C11.77 80.31 11.53 79.62 11.29 78.9 C10.51 76.61 9.76 74.3 9 72 C8.69 71.06 8.38 70.13 8.06 69.16 C0.82 46.61 -4.13 23.51 0 0 Z " fill="#EF5B13" transform="translate(6,1002)"/>
<path d="M0 0 C0.33 0 0.66 0 1 0 C1.11 0.68 1.21 1.36 1.32 2.06 C3.28 22.55 3.28 22.55 9.02 42.02 C10.31 44.62 10.6 47.07 11.06 49.94 C15.03 71.66 22.57 94.77 33.28 114.16 C34.52 117.33 33.81 119.77 33 123 C31.35 122.67 29.7 122.34 28 122 C24.12 110.01 24.12 110.01 23.56 105.44 C22.83 100.95 21.07 97.16 19.27 93 C17.87 89.7 16.71 86.37 15.62 82.95 C15.08 81.24 14.45 79.56 13.81 77.88 C13 75 13 75 13.25 71.88 C12.92 66.81 10.91 63.38 8.51 58.96 C7.01 56.02 6.01 53.14 5 50 C4.65 49.34 4.3 48.69 3.94 48.01 C2.69 45.33 2.39 42.8 2 39.88 C1.45 35.92 0.81 32.07 -0.12 28.19 C-2.03 19.02 -1.49 9.19 0 0 Z " fill="#EF5D15" transform="translate(331,680)"/>
<path d="M0 0 C-6.18 6.93 -12.11 8.31 -20.94 8.88 C-27.19 9.38 -32.42 10.33 -38.31 12.62 C-46.19 15.56 -54.26 15.47 -62.56 15.44 C-63.87 15.44 -65.18 15.43 -66.53 15.43 C-72.68 15.33 -78.21 15.17 -84 13 C-83.34 11.68 -82.68 10.36 -82 9 C-81.12 8.96 -80.24 8.93 -79.34 8.89 C-57.95 7.81 -36.88 5.97 -16.05 0.89 C-10.29 -0.48 -5.79 -1.43 0 0 Z " fill="#EF5910" transform="translate(631,862)"/>
<path d="M0 0 C4.88 2.75 4.88 2.75 6 5 C7.26 14.4 7.07 23.83 6.96 33.29 C6.92 38.7 7.04 44 7.54 49.39 C8.32 57.8 7.8 65.93 2.95 73.04 C0.74 77.59 0.57 83.02 0 88 C-0.33 88 -0.66 88 -1 88 C-1.08 68.95 -0.88 49.91 -0.54 30.87 C-0.47 27.37 -0.42 23.87 -0.36 20.37 C-0.24 13.58 -0.12 6.79 0 0 Z " fill="#EF5A11" transform="translate(949,603)"/>
<path d="M0 0 C0.99 0.33 1.98 0.66 3 1 C3 38.62 3 76.24 3 115 C2.01 114.67 1.02 114.34 0 114 C-0.92 107.06 -1.09 100.33 -1.02 93.34 C-0.97 82.81 -1.06 72.28 -1.25 61.75 C-1.29 59.31 -1.33 56.88 -1.37 54.44 C-1.48 47.77 -1.59 41.1 -1.72 34.43 C-1.8 30.29 -1.87 26.14 -1.94 21.99 C-1.96 20.43 -1.99 18.86 -2.03 17.3 C-2.07 15.14 -2.11 12.98 -2.14 10.82 C-2.16 9.59 -2.18 8.37 -2.2 7.11 C-2.01 4.13 -1.57 2.5 0 0 Z " fill="#E98459" transform="translate(1277,725)"/>
<path d="M0 0 C0.49 1.48 0.49 1.48 1 3 C0.2 3.85 -0.59 4.69 -1.41 5.56 C-8.96 13.54 -8.96 13.54 -15.52 22.32 C-17 24 -17 24 -19.81 25.86 C-23.2 28.13 -25.89 30.75 -28.69 33.69 C-37.59 42.79 -47.33 50.08 -58 57 C-60.69 58.78 -63.38 60.58 -66.06 62.38 C-67.32 63.22 -68.59 64.06 -69.85 64.9 C-70.89 65.59 -71.93 66.29 -73 67 C-76 69 -76 69 -79 69 C-78.81 66.69 -78.81 66.69 -78 64 C-75.69 62.44 -75.69 62.44 -73 61 C-72.44 60.4 -71.88 59.79 -71.3 59.17 C-68.32 56.36 -65.07 54.68 -61.44 52.81 C-60.77 52.46 -60.09 52.1 -59.4 51.74 C-56.63 50.29 -53.97 48.99 -51 48 C-51 47.34 -51 46.68 -51 46 C-50.31 45.68 -49.62 45.37 -48.91 45.04 C-41.23 41.23 -36.36 36.62 -31 30 C-29.04 27.63 -27.05 25.3 -25 23 C-24.34 23 -23.68 23 -23 23 C-22.79 22.45 -22.58 21.9 -22.36 21.33 C-20.52 18.18 -17.96 16.05 -15.25 13.69 C-11.75 10.57 -8.41 7.51 -5.44 3.88 C-3 1 -3 1 0 0 Z " fill="#EF590F" transform="translate(1210,1171)"/>
<path d="M0 0 C0.5 4.87 0.76 8.59 -2.38 12.56 C-2.84 13.12 -3.3 13.68 -3.77 14.25 C-5.51 16.73 -5.89 19.18 -6.47 22.11 C-7 24 -7 24 -9.06 26.81 C-11.41 30.68 -11.48 33.47 -11.53 37.93 C-11.98 40.85 -12.68 42.59 -13.96 45.21 C-16.31 50.22 -16.76 54.84 -17.06 60.31 C-17.68 70.79 -17.68 70.79 -21 74 C-21.99 73.67 -22.98 73.34 -24 73 C-24.43 63.62 -23.35 55.43 -20.94 46.38 C-20.47 44.55 -20.47 44.55 -19.98 42.69 C-8.65 0 -8.65 0 0 0 Z " fill="#EF5A10" transform="translate(29,173)"/>
<path d="M0 0 C-4.29 9.93 -18.04 15.4 -26.92 20.74 C-29.56 22.34 -32.16 24.01 -34.75 25.69 C-39.89 28.99 -45.17 32.01 -50.49 35 C-52.82 36.31 -55.1 37.67 -57.38 39.06 C-58.43 39.7 -59.48 40.34 -60.56 41 C-61.49 41.58 -62.42 42.15 -63.38 42.75 C-66.18 44.09 -67.94 44.27 -71 44 C-68.3 37.28 -60.75 33.6 -54.38 30.88 C-53.64 30.57 -52.9 30.26 -52.14 29.95 C-46.53 27.47 -41.74 23.81 -36.88 20.12 C-32.65 16.98 -28.43 14.65 -23.69 12.44 C-18.67 10.05 -15.5 7.96 -12.22 3.52 C-8.86 -0.65 -4.92 -1.59 0 0 Z " fill="#EF5910" transform="translate(947,598)"/>
<path d="M0 0 C1.77 1.46 3.54 2.92 5.31 4.38 C6.25 5.14 7.18 5.91 8.14 6.71 C12.64 10.31 17.31 13.65 22 17 C23.79 18.31 25.58 19.62 27.38 20.94 C32.59 24.74 37.91 28.39 43.25 32.02 C48.63 35.9 48.63 35.9 50 40 C44.1 39.59 40.67 38.9 36 35 C34.51 33.24 33.04 31.46 31.56 29.69 C28.78 26.21 28.78 26.21 24.87 24.57 C22.72 24.84 22.72 24.84 20 26 C19.62 25.47 19.25 24.94 18.86 24.39 C15.31 19.48 11.99 15.67 6.62 12.68 C3.82 10.89 1.88 8.94 -0.38 6.5 C-3.12 3.66 -5.28 1.56 -9 0.19 C-9.99 -0.2 -10.98 -0.6 -12 -1 C-12.94 -3.19 -12.94 -3.19 -13 -5 C-7.31 -7.49 -4.16 -3.52 0 0 Z " fill="#EF580E" transform="translate(478,949)"/>
<path d="M0 0 C1.08 0.34 1.08 0.34 2.19 0.69 C1.86 1.68 1.53 2.67 1.19 3.69 C-0.99 4.75 -0.99 4.75 -3.69 5.69 C-7.25 6.93 -9.2 8.04 -11.81 10.69 C-13.84 11.57 -13.84 11.57 -16.31 12.38 C-20.73 13.89 -24.99 15.6 -29.26 17.47 C-37.18 20.92 -45.16 23.97 -53.38 26.62 C-54.27 26.92 -55.16 27.21 -56.08 27.52 C-61.98 29.37 -67.64 30.31 -73.81 30.69 C-71.31 28.69 -71.31 28.69 -68.81 26.69 C-68.13 25.97 -67.45 25.24 -66.75 24.5 C-63.41 22.44 -61.74 22.45 -57.88 22.31 C-53.68 22.23 -53.68 22.23 -50.09 20.37 C-49.19 19.28 -48.3 18.19 -47.41 17.1 C-44.68 14.68 -41.41 14.71 -37.89 14.24 C-31.35 13.07 -24.41 10.79 -19.21 6.59 C-16.73 4.63 -15.38 4.09 -12.31 3.62 C-9.3 3.08 -7.73 2.64 -5.06 1 C-2.81 -0.31 -2.81 -0.31 0 0 Z " fill="#EF5A11" transform="translate(1126.8125,1240.3125)"/>
<path d="M0 0 C4 4.75 4 4.75 4 7 C4.99 7.33 5.98 7.66 7 8 C12.24 13.82 14.18 21.51 13.93 29.22 C13.37 33.63 13.37 33.63 12 35 C11.9 36.56 11.87 38.13 11.86 39.7 C11.84 40.66 11.82 41.62 11.8 42.62 C11.77 44.64 11.75 46.67 11.75 48.7 C11.54 57.01 11.54 57.01 8.58 60.71 C6 63 6 63 4 63 C3.1 59.41 3.02 56.96 3.88 53.38 C6.11 41.93 6.78 30.27 4.81 18.75 C4.7 18.07 4.59 17.39 4.47 16.69 C3.77 13.15 2.7 10.25 0.87 7.17 C-1 4 -1 4 -0.75 1.56 C-0.5 1.05 -0.25 0.53 0 0 Z " fill="#EF5B12" transform="translate(848,479)"/>
<path d="M0 0 C0.53 0.35 1.05 0.69 1.6 1.05 C4.91 3.11 6.7 3.55 10.47 4.11 C15.21 4.84 18.06 6.15 21.91 9.11 C22.9 9.58 23.89 10.06 24.91 10.55 C27.91 12.11 27.91 12.11 30.85 14.67 C34.2 17.34 36.83 17.98 40.91 19.11 C43.35 20.8 43.35 20.8 44.91 23.11 C45.16 26.86 45.16 26.86 44.91 30.11 C40.71 28.43 38.15 26.47 35.04 23.17 C31.32 19.3 27.78 17.21 22.91 15.11 C21.6 14.41 21.6 14.41 20.27 13.7 C16.06 11.71 11.8 10.37 7.35 9.05 C6.47 8.78 5.58 8.52 4.68 8.25 C-1.39 6.48 -7.27 5.23 -13.56 4.53 C-16.09 4.11 -17.87 3.38 -20.09 2.11 C-19.76 1.12 -19.43 0.13 -19.09 -0.89 C-13.42 -2.78 -5.52 -2.35 0 0 Z " fill="#EF5A10" transform="translate(800.08984375,443.890625)"/>
<path d="M0 0 C0.33 0.66 0.66 1.32 1 2 C1.66 2 2.32 2 3 2 C5.22 7.3 5.22 7.3 4.25 10.44 C3.84 11.28 3.43 12.13 3 13 C2.53 14.67 2.05 16.34 1.59 18.02 C0.56 21.47 -0.72 24.82 -2 28.19 C-2.39 29.23 -2.39 29.23 -2.79 30.3 C-3.81 33 -4.82 35.65 -6.13 38.21 C-7.13 40.27 -7.49 42.13 -7.88 44.38 C-8.78 48.67 -10.32 51.48 -13 55 C-13.92 56.29 -14.84 57.58 -15.75 58.88 C-16.49 59.91 -17.24 60.94 -18 62 C-19.04 58.87 -18.93 58.01 -18 55 C-17.34 55 -16.68 55 -16 55 C-16.19 54.27 -16.38 53.54 -16.58 52.79 C-17.04 49.76 -16.74 48.27 -15.74 45.41 C-15.45 44.55 -15.16 43.69 -14.85 42.81 C-14.53 41.9 -14.21 41 -13.88 40.06 C-13.55 39.12 -13.23 38.19 -12.89 37.22 C-11.94 34.47 -10.97 31.74 -10 29 C-9.75 28.31 -9.51 27.61 -9.25 26.9 C-8.24 24.05 -7.23 21.21 -6.2 18.38 C-4.03 12.28 -2.02 6.14 0 0 Z " fill="#EF5A10" transform="translate(436,611)"/>
<path d="M0 0 C0.66 0 1.32 0 2 0 C2 54.12 2 108.24 2 164 C1.01 164 0.02 164 -1 164 C-0.67 109.88 -0.34 55.76 0 0 Z " fill="#EC7641" transform="translate(2,767)"/>
<path d="M0 0 C0 0.66 0 1.32 0 2 C-1.04 2.36 -2.08 2.72 -3.16 3.1 C-7.1 4.47 -11.04 5.85 -14.98 7.22 C-16.68 7.82 -18.37 8.4 -20.06 8.99 C-32.92 13.46 -45.74 18 -58.06 23.81 C-61.71 25.51 -64.94 26.67 -69 27 C-69.33 25.35 -69.66 23.7 -70 22 C-68.91 21.73 -67.81 21.46 -66.69 21.19 C-63.12 20.36 -63.12 20.36 -61.56 18.5 C-59.43 16.45 -57.13 16.21 -54.3 15.59 C-50.91 14.72 -47.75 13.35 -44.52 12.01 C-42.12 11.05 -39.71 10.22 -37.25 9.44 C-34.63 8.59 -32.47 7.72 -30 6.44 C-26.74 4.88 -23.76 4.24 -20.23 3.54 C-18.11 3.03 -16.3 2.35 -14.31 1.44 C-9.26 -0.76 -5.35 -1.42 0 0 Z " fill="#EF5A11" transform="translate(402,273)"/>
<path d="M0 0 C3.47 1.32 6.69 2.84 9.93 4.65 C10.88 5.18 11.83 5.7 12.81 6.24 C14.33 7.08 14.33 7.08 15.88 7.94 C27.7 14.42 39.77 20.32 52 26 C51.5 27.49 51.5 27.49 51 29 C45.79 30.6 42.98 29.38 38.34 27.09 C36.16 26.07 34.13 25.44 31.81 24.81 C25.47 22.79 20.11 18.79 14.64 15.1 C13.18 14.12 11.7 13.18 10.21 12.25 C4.8 8.86 2.06 6.17 0 0 Z " fill="#EF580E" transform="translate(539,993)"/>
<path d="M0 0 C2.72 4.08 3.83 8.33 5.25 13 C5.56 14 5.86 15 6.17 16.03 C16.19 49.82 16.19 49.82 16.1 63.74 C16.09 64.58 16.09 65.42 16.09 66.28 C16.08 67.14 16.07 67.99 16.06 68.88 C16.06 69.75 16.05 70.63 16.05 71.54 C16.04 73.69 16.02 75.85 16 78 C10.1 72.31 10.1 72.31 10 68 C10.33 66.8 10.66 65.61 11 64.38 C13.28 55.99 11.37 49.23 7.26 41.87 C5.41 37.67 4.82 33.32 4.1 28.82 C3.46 24.96 2.62 21.72 0.81 18.25 C-1.81 13.08 -1.54 7.67 -1 2 C-0.67 1.34 -0.34 0.68 0 0 Z " fill="#EF5B13" transform="translate(1258,191)"/>
<path d="M0 0 C0.99 0.5 0.99 0.5 2 1 C2.91 13.65 3.13 26.23 3.1 38.91 C3.1 40.86 3.09 42.81 3.09 44.76 C3.09 49.82 3.08 54.89 3.07 59.96 C3.06 65.16 3.05 70.35 3.05 75.55 C3.04 85.7 3.02 95.85 3 106 C2.01 105.67 1.02 105.34 0 105 C0 70.35 0 35.7 0 0 Z " fill="#F1AD8F" transform="translate(0,661)"/>
<path d="M0 0 C0 0.66 0 1.32 0 2 C-3.14 4.9 -6.61 7.41 -10 10 C-10.78 10.62 -11.57 11.24 -12.38 11.88 C-27.33 23.34 -45.39 33.26 -63 40 C-60.36 33.28 -53.27 30.27 -47.31 26.88 C-46.48 26.4 -45.65 25.92 -44.79 25.42 C-40.6 23.02 -36.39 20.66 -32.14 18.38 C-24.2 14.11 -17.03 9.92 -10.26 3.91 C-4.04 -1.35 -4.04 -1.35 0 0 Z " fill="#EF590F" transform="translate(828,861)"/>
<path d="M0 0 C1.22 0 1.22 0 2.47 0 C9.15 0.07 15.64 0.44 21.8 3.23 C25.21 4.44 28.21 4.47 31.81 4.56 C39.54 4.9 44.09 6.91 50.5 11.19 C50.5 11.85 50.5 12.51 50.5 13.19 C47.94 12.93 45.37 12.65 42.81 12.38 C42.11 12.3 41.41 12.23 40.69 12.16 C36.14 11.66 31.78 10.82 27.33 9.75 C20.23 8.05 13.11 7.02 5.88 6.06 C3.4 5.73 0.93 5.39 -1.54 5.05 C-2.61 4.91 -3.69 4.77 -4.8 4.62 C-7.5 4.19 -7.5 4.19 -10.5 3.19 C-10.5 2.53 -10.5 1.87 -10.5 1.19 C-7.22 -0.45 -3.6 -0 0 0 Z " fill="#EF5B13" transform="translate(763.5,244.8125)"/>
<path d="M0 0 C1.98 0.5 1.98 0.5 4 1 C5.13 4.63 5.13 8.03 5.13 11.81 C5.13 12.46 5.13 13.11 5.14 13.78 C5.14 15.16 5.13 16.53 5.13 17.9 C5.13 19.99 5.13 22.09 5.14 24.18 C5.14 25.52 5.13 26.85 5.13 28.19 C5.13 29.4 5.13 30.61 5.13 31.86 C5 35 5 35 4.37 37.24 C4.25 37.82 4.12 38.4 4 39 C4.66 39.99 5.32 40.98 6 42 C6.25 45.56 6.25 45.56 6 49 C5.34 49.66 4.68 50.32 4 51 C1.88 50.62 1.88 50.62 0 50 C-0.91 43.93 -1.07 38.16 -0.88 32.03 C-0.86 31.11 -0.83 30.19 -0.81 29.24 C-0.73 26.33 -0.65 23.41 -0.56 20.5 C-0.51 18.51 -0.46 16.53 -0.4 14.54 C-0.28 9.69 -0.14 4.85 0 0 Z " fill="#F0580D" transform="translate(956,306)"/>
<path d="M0 0 C0.66 0 1.32 0 2 0 C2.34 1.21 2.68 2.42 3.03 3.67 C5.67 12.87 8.56 21.87 12.12 30.75 C12.61 31.96 12.61 31.96 13.11 33.2 C14.94 37.67 16.94 41.95 19.29 46.18 C20.52 49.33 19.8 51.78 19 55 C17.35 54.67 15.7 54.34 14 54 C10.12 42.01 10.12 42.01 9.56 37.44 C8.83 32.95 7.07 29.16 5.27 25 C3.87 21.7 2.71 18.37 1.62 14.96 C1.07 13.23 0.45 11.52 -0.19 9.81 C-1.08 6.73 -1.22 4.19 -1 1 C-0.67 0.67 -0.34 0.34 0 0 Z " fill="#EF5B12" transform="translate(345,748)"/>
<path d="M0 0 C5.67 1.16 11.14 1.92 16.95 2.06 C19.95 2.73 21.12 4.37 23.19 6.56 C-12.98 6.84 -12.98 6.84 -19.81 4.56 C-16.57 -4.47 -7.99 -1.71 0 0 Z " fill="#EF5B13" transform="translate(700.8125,236.4375)"/>
<path d="M0 0 C1.65 0 3.3 0 5 0 C4.67 11.55 4.34 23.1 4 35 C2.35 35 0.7 35 -1 35 C-3.42 32.58 -2.17 26.82 -2.19 23.44 C-2.19 22.74 -2.19 22.05 -2.19 21.33 C-2.19 19.21 -2.21 17.09 -2.22 14.97 C-2.23 13.62 -2.23 12.27 -2.23 10.92 C-2.23 9.69 -2.24 8.46 -2.24 7.19 C-2.01 4.18 -1.58 2.52 0 0 Z " fill="#F0580D" transform="translate(320,303)"/>
<path d="M0 0 C0.64 0.24 1.28 0.49 1.93 0.74 C6.31 2.55 9.03 4.89 12.25 8.31 C13.91 8.99 15.58 9.66 17.25 10.31 C17.75 11.8 17.75 11.8 18.25 13.31 C13.87 13.31 11.11 12.11 7.25 10.31 C5.78 9.64 4.31 8.97 2.84 8.3 C0.5 7.24 -1.84 6.18 -4.17 5.1 C-8.37 3.2 -12.11 1.8 -16.75 1.31 C-16.75 0.65 -16.75 -0.01 -16.75 -0.69 C-17.74 -1.02 -18.73 -1.35 -19.75 -1.69 C-12.55 -4.09 -6.87 -2.69 0 0 Z " fill="#EF5A11" transform="translate(675.75,702.6875)"/>
<path d="M0 0 C7.11 -0.73 13.01 1.45 19.61 3.81 C22.08 4.68 24.45 5.44 27 6 C27 6.66 27 7.32 27 8 C27.66 8 28.32 8 29 8 C28.34 9.32 27.68 10.64 27 12 C20.45 12.45 16.42 11.28 10.69 8.19 C9.99 7.83 9.28 7.47 8.56 7.11 C5.23 5.38 2.52 3.83 0 1 C0 0.67 0 0.34 0 0 Z " fill="#EF5B12" transform="translate(924,351)"/>
<path d="M0 0 C0 1.32 0 2.64 0 4 C-0.62 4.23 -1.23 4.46 -1.87 4.7 C-6.36 6.43 -10.52 8.23 -14.62 10.75 C-19.01 13.28 -21.98 13.62 -27 13 C-27.66 12.34 -28.32 11.68 -29 11 C-28.07 10.67 -28.07 10.67 -27.13 10.34 C-21.57 8.26 -16.84 5.81 -12.01 2.37 C-7.54 -0.68 -5.39 -1.23 0 0 Z " fill="#EF5910" transform="translate(871,644)"/>
<path d="M0 0 C0.33 1.32 0.66 2.64 1 4 C-4.62 5.76 -10.2 7.32 -15.96 8.52 C-18.24 9.02 -18.24 9.02 -21.31 10.19 C-24.1 11.03 -25.33 11.03 -28 10 C-26.31 7.09 -24.98 5.29 -21.68 4.33 C-19.92 4.02 -18.15 3.74 -16.38 3.47 C-13.85 3.12 -13.85 3.12 -11.44 1.38 C-7.75 -0.7 -4.14 -0.24 0 0 Z " fill="#EF5A11" transform="translate(434,262)"/>
<path d="M0 0 C0.33 0.66 0.66 1.32 1 2 C3.06 2.03 5.12 2.05 7.19 2.06 C8.34 2.07 9.48 2.09 10.67 2.1 C13.61 2.01 16.14 1.62 19 1 C20.56 0.87 22.12 0.78 23.69 0.75 C24.84 0.71 24.84 0.71 26.01 0.67 C26.67 0.78 27.32 0.89 28 1 C28.66 1.99 29.32 2.98 30 4 C29.67 4.66 29.34 5.32 29 6 C28.42 5.65 27.85 5.3 27.25 4.94 C24.63 3.84 23.61 4.01 21 5 C20.67 5.33 20.34 5.66 20 6 C18 6.09 16 6.11 14 6.1 C12.78 6.09 11.57 6.09 10.31 6.09 C9.04 6.08 7.76 6.07 6.44 6.06 C5.15 6.06 3.87 6.05 2.55 6.05 C-0.63 6.04 -3.82 6.02 -7 6 C-5.33 2.16 -5.33 2.16 -2.38 0.75 C-1.59 0.5 -0.81 0.25 0 0 Z " fill="#F0580D" transform="translate(631,233)"/>
<path d="M0 0 C0.94 0 1.88 0.01 2.84 0.01 C4.31 0.02 4.31 0.02 5.8 0.04 C6.79 0.04 7.78 0.04 8.79 0.05 C11.23 0.06 13.67 0.08 16.11 0.1 C15.78 1.09 15.45 2.08 15.11 3.1 C12.6 4 10.26 4.69 7.68 5.29 C6.95 5.46 6.23 5.63 5.49 5.81 C-0.01 7.07 -5.24 7.59 -10.89 7.1 C-8 1.33 -6.72 -0.04 0 0 Z " fill="#EF5B12" transform="translate(453.88671875,254.90234375)"/>
<path d="M0 0 C0.33 0 0.66 0 1 0 C1.23 2.05 1.46 4.1 1.68 6.15 C1.82 8.01 1.82 8.01 3 9 C3.09 10.81 3.12 12.62 3.11 14.44 C3.11 16.18 3.11 16.18 3.11 17.96 C3.11 19.22 3.1 20.48 3.1 21.79 C3.1 23.07 3.09 24.36 3.09 25.68 C3.09 29.11 3.08 32.53 3.07 35.96 C3.06 39.45 3.05 42.94 3.05 46.43 C3.04 53.29 3.02 60.14 3 67 C2.67 67 2.34 67 2 67 C1.97 66.14 1.95 65.28 1.92 64.39 C1.83 61.15 1.73 57.91 1.63 54.68 C1.58 53.28 1.54 51.89 1.5 50.5 C1.29 41.45 1.29 41.45 0.47 32.44 C-0.33 26.13 -0.1 19.78 -0.06 13.44 C-0.06 12.14 -0.05 10.85 -0.05 9.51 C-0.04 6.34 -0.02 3.17 0 0 Z " fill="#F9D5C9" transform="translate(0,923)"/>
<path d="M0 0 C0 0.66 0 1.32 0 2 C0.66 2.66 1.32 3.32 2 4 C-9.65 8.83 -9.65 8.83 -15 7 C-16 6 -16 6 -16.06 2.94 C-16.04 1.97 -16.02 1 -16 0 C-10.39 -0.83 -5.58 -1.07 0 0 Z " fill="#EF580E" transform="translate(1051,6)"/>
<path d="M0 0 C0.99 0.33 1.98 0.66 3 1 C3.27 7.54 2.72 13.09 -1.38 18.38 C-4.76 21.76 -4.76 21.76 -8 22 C-7.72 15.76 -5.27 11.15 -2.38 5.67 C-0.92 3.01 -0.92 3.01 0 0 Z " fill="#EF590F" transform="translate(849,544)"/>
<path d="M0 0 C0.66 0 1.32 0 2 0 C-0.02 6.96 -2.27 13.8 -4.69 20.62 C-5.01 21.53 -5.33 22.44 -5.66 23.38 C-6.44 25.59 -7.22 27.79 -8 30 C-10 28 -10 28 -10.38 24.38 C-10.28 20.29 -9.05 17.54 -7.08 14.02 C-5.98 11.96 -5.2 9.94 -4.44 7.75 C-3.35 4.76 -2.24 2.34 0 0 Z " fill="#EF5C14" transform="translate(615,534)"/>
<path d="M0 0 C0.66 0 1.32 0 2 0 C2.27 8.09 2.27 8.09 0 12 C-0.7 14.32 -1.37 16.66 -2 19 C-3.32 19 -4.64 19 -6 19 C-7.24 14.73 -6.69 12.28 -5.06 8.19 C-4.49 6.72 -4.49 6.72 -3.91 5.23 C-3.61 4.49 -3.31 3.76 -3 3 C-2.34 3 -1.68 3 -1 3 C-0.67 2.01 -0.34 1.02 0 0 Z " fill="#EF590E" transform="translate(416,674)"/>
<path d="M0 0 C1.24 0.01 2.48 0.03 3.76 0.04 C6.88 0.38 6.88 0.38 8.88 2.38 C4.23 5.35 0.75 6.52 -4.75 6.56 C-5.91 6.58 -5.91 6.58 -7.1 6.61 C-9.12 6.38 -9.12 6.38 -11.12 4.38 C-7.76 0.09 -5.33 -0.12 0 0 Z " fill="#EF5A10" transform="translate(1043.125,1268.625)"/>
<path d="M0 0 C0.31 0.64 0.62 1.28 0.94 1.94 C1.83 3.94 1.83 3.94 3 5 C3.09 6.42 3.11 7.84 3.1 9.25 C3.09 10.11 3.09 10.96 3.09 11.84 C3.08 12.74 3.07 13.64 3.06 14.56 C3.06 15.46 3.05 16.37 3.05 17.29 C3.04 19.53 3.02 21.76 3 24 C-1.7 19.78 -1.7 19.78 -2.9 16.64 C-3.03 13.14 -2.36 10.1 -1.56 6.69 C-1.13 4.81 -1.13 4.81 -0.69 2.89 C-0.46 1.93 -0.24 0.98 0 0 Z " fill="#EF580E" transform="translate(1271,245)"/>
<path d="M0 0 C0 1.33 0 2.67 0 4 C-6.64 4.21 -12.53 3.51 -19 2 C-19 1.01 -19 0.02 -19 -1 C-12.74 -3.09 -6.06 -2.55 0 0 Z " fill="#EF5A11" transform="translate(245,1271)"/>
<path d="M0 0 C3.5 0.07 3.93 0.25 6.62 2.81 C8.12 5.44 8.12 5.44 8.12 7.44 C6 7.46 3.88 7.48 1.75 7.5 C0.57 7.51 -0.62 7.52 -1.84 7.54 C-4.88 7.44 -4.88 7.44 -6.88 6.44 C-5.93 1.73 -5.03 0.57 0 0 Z " fill="#EF5C14" transform="translate(733.875,238.5625)"/>
<path d="M0 0 C0.99 0.33 1.98 0.66 3 1 C3.06 1.71 3.12 2.42 3.18 3.15 C3.27 4.07 3.35 4.99 3.44 5.94 C3.52 6.85 3.6 7.77 3.68 8.71 C3.76 10.96 3.76 10.96 5 12 C5.07 14.7 5.09 17.37 5.06 20.06 C5.06 20.82 5.05 21.58 5.05 22.36 C5.04 24.24 5.02 26.12 5 28 C4.01 28 3.02 28 2 28 C1.94 26.78 1.88 25.57 1.82 24.32 C1.73 22.73 1.65 21.15 1.56 19.56 C1.52 18.76 1.48 17.96 1.44 17.13 C1.59 13.25 1.59 13.25 0 10 C-0.07 8.31 -0.08 6.62 -0.06 4.94 C-0.05 4.02 -0.04 3.1 -0.04 2.15 C-0.02 1.44 -0.01 0.73 0 0 Z " fill="#E98256" transform="translate(0,651)"/>
<path d="M0 0 C0 8.58 0 17.16 0 26 C-0.66 26 -1.32 26 -2 26 C-2.95 17.65 -3.11 9.4 -3 1 C-1 0 -1 0 0 0 Z " fill="#EB8558" transform="translate(5,989)"/>
<path d="M0 0 C2 1 2 1 2 1 Z M-5 4 C-4.34 4 -3.68 4 -3 4 C-3.33 4.66 -3.66 5.32 -4 6 C-4.33 5.34 -4.66 4.68 -5 4 Z M-6 6 C-7.39 9.37 -8.98 10.99 -12 13 C-12 10 -12 10 -10.12 7.81 C-8 6 -8 6 -6 6 Z M-19 16 C-18.34 16 -17.68 16 -17 16 C-17.33 16.99 -17.66 17.98 -18 19 C-18.66 18.34 -19.32 17.68 -20 17 C-19.67 16.67 -19.34 16.34 -19 16 Z M-25 21 C-24.34 21 -23.68 21 -23 21 C-23.66 22.32 -24.32 23.64 -25 25 C-25.66 24.34 -26.32 23.68 -27 23 C-26.34 22.34 -25.68 21.68 -25 21 Z M-32 27 C-31.34 27 -30.68 27 -30 27 C-30.33 27.66 -30.66 28.32 -31 29 C-31.33 28.34 -31.66 27.68 -32 27 Z " fill="#F05B12" transform="translate(822,931)"/>
<path d="M0 0 C0.66 0.99 1.32 1.98 2 3 C0.04 3.03 -1.92 3.05 -3.88 3.06 C-4.97 3.07 -6.06 3.09 -7.18 3.1 C-10 3 -10 3 -12 2 C-13.7 1.77 -15.41 1.59 -17.12 1.44 C-18.04 1.35 -18.95 1.27 -19.88 1.18 C-20.58 1.12 -21.28 1.06 -22 1 C-22 0.67 -22 0.34 -22 0 C-14.69 -1.11 -7.29 -1.46 0 0 Z " fill="#F4B9A1" transform="translate(266,1277)"/>
<path d="M0 0 C0 3 0 3 0 3 Z M-4 3 C-3.34 3 -2.68 3 -2 3 C-2.33 3.99 -2.66 4.98 -3 6 C-3.66 5.34 -4.32 4.68 -5 4 C-4.67 3.67 -4.34 3.34 -4 3 Z M-9 7 C-8.34 7 -7.68 7 -7 7 C-7.33 7.66 -7.66 8.32 -8 9 C-8.33 8.34 -8.66 7.68 -9 7 Z M-12 9 C-11.34 9 -10.68 9 -10 9 C-10.33 9.66 -10.66 10.32 -11 11 C-11.33 10.34 -11.66 9.68 -12 9 Z M-14 10 C-13.34 10 -12.68 10 -12 10 C-12.33 10.66 -12.66 11.32 -13 12 C-13.33 11.34 -13.66 10.68 -14 10 Z M-17 12 C-16.34 12 -15.68 12 -15 12 C-15.33 12.66 -15.66 13.32 -16 14 C-16.33 13.34 -16.66 12.68 -17 12 Z M-19 13 C-18.34 13 -17.68 13 -17 13 C-17.33 13.99 -17.66 14.98 -18 16 C-18.66 15.34 -19.32 14.68 -20 14 C-19.67 13.67 -19.34 13.34 -19 13 Z M-24 17 C-23.34 17 -22.68 17 -22 17 C-22.33 17.66 -22.66 18.32 -23 19 C-23.33 18.34 -23.66 17.68 -24 17 Z M-27 19 C-26.34 19 -25.68 19 -25 19 C-25.33 19.66 -25.66 20.32 -26 21 C-26.33 20.34 -26.66 19.68 -27 19 Z " fill="#F05B12" transform="translate(781,965)"/>
<path d="M0 0 C0.33 0 0.66 0 1 0 C1.2 2.06 1.38 4.12 1.56 6.19 C1.67 7.34 1.77 8.48 1.88 9.67 C1.99 12.69 1.74 15.09 1 18 C0.34 18 -0.32 18 -1 18 C-1.03 15.19 -1.05 12.38 -1.06 9.56 C-1.07 8.76 -1.08 7.96 -1.09 7.13 C-1.1 5.09 -1.05 3.04 -1 1 C-0.67 0.67 -0.34 0.34 0 0 Z " fill="#EC946E" transform="translate(1,633)"/>
<path d="M0 0 C0.33 0 0.66 0 1 0 C1.02 4.2 1.04 8.4 1.05 12.6 C1.06 14.03 1.07 15.45 1.08 16.88 C1.09 18.94 1.09 20.99 1.1 23.05 C1.1 24.28 1.11 25.52 1.11 26.79 C1.02 29.41 0.78 31.52 0 34 C-0.66 34 -1.32 34 -2 34 C-2 32.02 -2 30.04 -2 28 C-1.34 28 -0.68 28 0 28 C0 18.76 0 9.52 0 0 Z " fill="#EF6626" transform="translate(955,318)"/>
<path d="M0 0 C2 1 2 1 2 1 Z M-1 1 C-0.34 1.66 0.32 2.32 1 3 C0.34 3 -0.32 3 -1 3 C-1 2.34 -1 1.68 -1 1 Z M-2 3 C-1.34 3.66 -0.68 4.32 0 5 C-0.66 5 -1.32 5 -2 5 C-2 4.34 -2 3.68 -2 3 Z M-3 5 C-2.34 5.66 -1.68 6.32 -1 7 C-1.66 7 -2.32 7 -3 7 C-3 6.34 -3 5.68 -3 5 Z M-4 7 C-3.34 7.66 -2.68 8.32 -2 9 C-2.66 9 -3.32 9 -4 9 C-4 8.34 -4 7.68 -4 7 Z M-5 9 C-4.34 9.66 -3.68 10.32 -3 11 C-3.66 11 -4.32 11 -5 11 C-5 10.34 -5 9.68 -5 9 Z M-6 11 C-5.34 11.66 -4.68 12.32 -4 13 C-4.66 13 -5.32 13 -6 13 C-6 12.34 -6 11.68 -6 11 Z M-7 13 C-6.34 13.66 -5.68 14.32 -5 15 C-5.66 15 -6.32 15 -7 15 C-7 14.34 -7 13.68 -7 13 Z M-8 15 C-7.34 15.66 -6.68 16.32 -6 17 C-6.66 17 -7.32 17 -8 17 C-8 16.34 -8 15.68 -8 15 Z M-9 17 C-8.34 17.66 -7.68 18.32 -7 19 C-7.66 19 -8.32 19 -9 19 C-9 18.34 -9 17.68 -9 17 Z M-10 19 C-9.34 19.66 -8.68 20.32 -8 21 C-8.66 21 -9.32 21 -10 21 C-10 20.34 -10 19.68 -10 19 Z M-11 21 C-10.34 21.66 -9.68 22.32 -9 23 C-9.99 23 -10.98 23 -12 23 C-11.67 22.34 -11.34 21.68 -11 21 Z " fill="#F05C14" transform="translate(903,820)"/>
<path d="M0 0 C0.98 0.01 1.97 0.02 2.98 0.03 C4.11 0.04 4.11 0.04 5.25 0.06 C1.86 3.19 -0.46 3.4 -5 3.25 C-6.62 3.21 -6.62 3.21 -8.27 3.17 C-9.09 3.13 -9.91 3.1 -10.75 3.06 C-9.75 1.06 -9.75 1.06 -8.05 0.44 C-5.33 -0.01 -2.75 -0.03 0 0 Z " fill="#F7C9B8" transform="translate(1027.75,1276.9375)"/>
<path d="M0 0 C0.99 0.33 1.98 0.66 3 1 C3.33 4.3 3.66 7.6 4 11 C3.01 11 2.02 11 1 11 C-0 10 -0 10 -0.1 7.71 C-0.09 6.8 -0.07 5.88 -0.06 4.94 C-0.05 4.02 -0.04 3.1 -0.04 2.15 C-0.02 1.44 -0.01 0.73 0 0 Z " fill="#E98459" transform="translate(0,651)"/>
<path d="M0 0 C2 1 2 1 2 1 Z M-7 7 C-6.34 7.66 -5.68 8.32 -5 9 C-6.65 10.32 -8.3 11.64 -10 13 C-10 10 -10 10 -8.5 8.31 C-7.76 7.66 -7.76 7.66 -7 7 Z M-14 13 C-13.34 13 -12.68 13 -12 13 C-12.66 14.32 -13.32 15.64 -14 17 C-14.66 16.34 -15.32 15.68 -16 15 C-15.34 14.34 -14.68 13.68 -14 13 Z " fill="#F05B12" transform="translate(840,912)"/>
<path d="M0 0 C2 1 2 1 2 1 Z M-2 2 C-1.34 2.66 -0.68 3.32 0 4 C-2.64 6.64 -5.28 9.28 -8 12 C-8.66 11.34 -9.32 10.68 -10 10 C-7.36 7.36 -4.72 4.72 -2 2 Z " fill="#F05C14" transform="translate(703,819)"/>
<path d="M0 0 C1.98 0.5 1.98 0.5 4 1 C4 3.31 4 5.62 4 8 C2.06 7.25 2.06 7.25 0 6 C-0.81 4 -0.81 4 -1 2 C-0.67 1.34 -0.34 0.68 0 0 Z " fill="#F0580D" transform="translate(321,449)"/>
</svg>
